<svg width="220" height="220" viewBox="0 0 220 220" fill="none" xmlns="http://www.w3.org/2000/svg">
<rect width="220" height="220" fill="white"/>
<path d="M159.498 60.5025C146.276 47.2813 128.697 40 110 40C91.3026 40 73.7236 47.2813 60.5025 60.5025C47.2813 73.7236 40 91.3026 40 110C40 128.697 47.2813 146.276 60.5025 159.498C73.7236 172.719 91.3026 180 110 180C128.697 180 146.276 172.719 159.498 159.498C172.719 146.276 180 128.697 180 110C180 91.3026 172.719 73.7236 159.498 60.5025ZM70.3804 157.386C72.6918 137.498 89.7913 122.142 110 122.142C120.653 122.142 130.671 126.293 138.207 133.828C144.573 140.195 148.588 148.508 149.621 157.385C138.886 166.375 125.065 171.797 110 171.797C94.9353 171.797 81.115 166.376 70.3804 157.386ZM110 113.694C98.2774 113.694 88.7392 104.155 88.7392 92.4327C88.7392 80.7091 98.2774 71.1719 110 71.1719C121.723 71.1719 131.261 80.7091 131.261 92.4327C131.261 104.155 121.723 113.694 110 113.694ZM156.681 150.451C154.591 142.023 150.232 134.253 144.007 128.028C138.965 122.986 133.001 119.204 126.496 116.834C134.316 111.531 139.464 102.571 139.464 92.4327C139.464 76.1867 126.246 62.9688 110 62.9688C93.754 62.9688 80.536 76.1867 80.536 92.4327C80.536 102.577 85.6886 111.539 93.5147 116.841C87.5301 119.022 81.9919 122.394 77.227 126.833C70.327 133.259 65.5354 141.453 63.3138 150.444C53.9047 139.597 48.2031 125.452 48.2031 110C48.2031 75.925 75.925 48.2031 110 48.2031C144.075 48.2031 171.797 75.925 171.797 110C171.797 125.456 166.093 139.604 156.681 150.451Z" fill="#888BA4"/>
</svg>
