<svg width="32" height="32" viewBox="0 0 32 32" fill="none" xmlns="http://www.w3.org/2000/svg">
<path d="M32 16C32 13.6764 29.2564 12.1959 26.0212 12.4312C25.3927 12.4759 24.6718 12.5802 23.924 12.7172C24.5496 12.2823 25.1305 11.8473 25.6101 11.4362C28.0648 9.31819 28.9555 6.32731 27.3141 4.68591C25.6727 3.0445 22.6818 3.93521 20.5638 6.38987C20.1527 6.8665 19.7148 7.45038 19.2828 8.07596C19.4198 7.32824 19.5211 6.60734 19.5688 5.97877C19.8041 2.7466 18.3206 0 16 0C13.6794 0 12.1959 2.74362 12.4312 5.97877C12.4759 6.60734 12.5802 7.32824 12.7172 8.07596C12.2823 7.45038 11.8473 6.86948 11.4362 6.38987C9.31819 3.93819 6.32731 3.0445 4.68591 4.68591C3.0445 6.32731 3.93521 9.31819 6.38987 11.4362C6.86651 11.8473 7.45038 12.2852 8.07596 12.7172C7.32824 12.5802 6.60734 12.4789 5.97877 12.4312C2.7466 12.1959 0 13.6794 0 16C0 18.3206 2.74362 19.8041 5.97877 19.5688C6.60734 19.5241 7.32824 19.4198 8.07596 19.2828C7.45038 19.7177 6.86948 20.1527 6.38987 20.5638C3.93819 22.6818 3.0445 25.6727 4.68591 27.3141C6.32731 28.9555 9.31819 28.0648 11.4362 25.6101C11.8473 25.1335 12.2852 24.5496 12.7172 23.924C12.5802 24.6718 12.4789 25.3927 12.4312 26.0212C12.1959 29.2534 13.6794 32 16 32C18.3206 32 19.8041 29.2564 19.5688 26.0212C19.5241 25.3927 19.4198 24.6718 19.2828 23.924C19.7177 24.5496 20.1527 25.1305 20.5638 25.6101C22.6818 28.0618 25.6727 28.9555 27.3141 27.3141C28.9555 25.6727 28.0648 22.6818 25.6101 20.5638C25.1335 20.1527 24.5496 19.7148 23.924 19.2828C24.6718 19.4198 25.3927 19.5211 26.0212 19.5688C29.2534 19.8041 32 18.3206 32 16Z" fill="#006AF2"/>
</svg>
