<svg width="45" height="44" viewBox="0 0 45 44" fill="none" xmlns="http://www.w3.org/2000/svg">
<path d="M44.0282 22C44.0282 18.8051 40.2533 16.7693 35.8021 17.0929C34.9373 17.1543 33.9454 17.2977 32.9166 17.4861C33.7773 16.8881 34.5766 16.2901 35.2365 15.7248C38.6138 12.8125 39.8393 8.70006 37.5809 6.44312C35.3226 4.18618 31.2075 5.41091 28.2933 8.78607C27.7277 9.44144 27.1252 10.2443 26.5309 11.1044C26.7194 10.0763 26.8587 9.08509 26.9243 8.22082C27.2481 3.77658 25.207 0 22.0141 0C18.8212 0 16.7801 3.77248 17.1039 8.22082C17.1653 9.08509 17.3088 10.0763 17.4973 11.1044C16.8989 10.2443 16.3005 9.44554 15.7349 8.78607C12.8207 5.41501 8.70563 4.18618 6.44725 6.44312C4.18887 8.70006 5.41438 12.8125 8.7917 15.7248C9.44749 16.2901 10.2508 16.8922 11.1116 17.4861C10.0828 17.2977 9.09091 17.1584 8.22608 17.0929C3.779 16.7693 0 18.8092 0 22C0 25.1908 3.7749 27.2307 8.22608 26.9071C9.09091 26.8457 10.0828 26.7023 11.1116 26.5139C10.2508 27.1119 9.45159 27.7099 8.7917 28.2752C5.41847 31.1875 4.18887 35.2999 6.44725 37.5569C8.70563 39.8138 12.8207 38.5891 15.7349 35.2139C16.3005 34.5586 16.903 33.7557 17.4973 32.8956C17.3088 33.9237 17.1694 34.9149 17.1039 35.7792C16.7801 40.2234 18.8212 44 22.0141 44C25.207 44 27.2481 40.2275 26.9243 35.7792C26.8628 34.9149 26.7194 33.9237 26.5309 32.8956C27.1293 33.7557 27.7277 34.5545 28.2933 35.2139C31.2075 38.585 35.3226 39.8138 37.5809 37.5569C39.8393 35.2999 38.6138 31.1875 35.2365 28.2752C34.5807 27.7099 33.7773 27.1078 32.9166 26.5139C33.9454 26.7023 34.9373 26.8416 35.8021 26.9071C40.2492 27.2307 44.0282 25.1908 44.0282 22Z" fill="#006AF2"/>
</svg>
