<svg width="192" height="61" viewBox="0 0 192 61" fill="none" xmlns="http://www.w3.org/2000/svg">
<path d="M6.21517 33V32.4967L9.392 31.2386V13.9705H4.42231L2.18909 18.72H1.68583V12.2405H20.3694V18.72H19.8661L17.6643 13.9705H12.6632V31.2386L15.8715 32.4967V33H6.21517ZM22.2689 33V32.4967L24.2819 31.4902V22.117L22.3632 20.5129V20.2612L26.7038 18.4998H26.9555L27.2386 21.2048H27.3644C27.8467 20.408 28.287 19.8209 28.6854 19.4434C29.0838 19.045 29.4613 18.7934 29.8178 18.6885C30.1742 18.5627 30.5412 18.4998 30.9186 18.4998C31.1074 18.4998 31.3066 18.5313 31.5163 18.5942C31.7469 18.6361 31.9356 18.6885 32.0824 18.7515C32.3341 18.8563 32.5542 18.9821 32.743 19.1289C32.9317 19.2757 33.026 19.4434 33.026 19.6322C33.026 19.8209 32.9841 20.0096 32.9002 20.1983L32.2397 21.8654H32.0195L30.9186 21.425C30.667 21.3411 30.4259 21.2887 30.1952 21.2678C29.9645 21.2258 29.7339 21.2048 29.5032 21.2048C28.6016 21.2048 27.8571 21.6347 27.27 22.4944V31.4902L29.5661 32.4967V33H22.2689ZM40.5214 33.3145C39.2842 33.3145 38.2672 33 37.4704 32.3709C36.6945 31.7419 36.3066 30.8192 36.3066 29.603V20.2927L34.2935 19.3176V18.8144H39.2632V28.1561C39.2632 29.0368 39.5253 29.7078 40.0496 30.1692C40.5948 30.6305 41.2972 30.8611 42.157 30.8611C42.6812 30.8611 43.2578 30.7773 43.8869 30.6095C44.516 30.4208 45.0193 30.1482 45.3967 29.7917V20.2927L43.2578 19.3176V18.8144H48.3848V31.5846L50.5551 32.4967V33H45.3967V31.0184H45.2394C44.4636 31.7943 43.7087 32.3709 42.9748 32.7484C42.2408 33.1258 41.423 33.3145 40.5214 33.3145ZM59.5307 33.3145C57.4758 33.3145 55.8506 32.6959 54.6554 31.4588C53.4602 30.2216 52.8625 28.5755 52.8625 26.5205C52.8625 24.9688 53.1771 23.5848 53.8062 22.3686C54.4562 21.1524 55.3054 20.2088 56.3539 19.5378C57.4233 18.8458 58.5766 18.4998 59.8138 18.4998C61.4914 18.4998 62.8019 19.0765 63.7455 20.2298C64.6891 21.3621 65.1714 22.9977 65.1924 25.1366L65.0351 25.2938H55.7563C55.7773 26.2584 55.9555 27.1496 56.291 27.9674C56.6475 28.7852 57.2032 29.4457 57.958 29.949C58.7339 30.4522 59.7719 30.7039 61.072 30.7039C62.2672 30.7039 63.6197 30.3055 65.1295 29.5086H65.2239V29.8861C64.7206 30.8507 63.9762 31.6685 62.9906 32.3395C62.0051 32.9895 60.8518 33.3145 59.5307 33.3145ZM59.2477 19.8838C58.325 19.8838 57.5596 20.2298 56.9515 20.9218C56.3644 21.6137 55.9869 22.5888 55.8192 23.847H62.5188C62.3091 22.4211 61.9317 21.4041 61.3865 20.7959C60.8413 20.1878 60.1284 19.8838 59.2477 19.8838ZM69.4146 40.5804C68.9323 40.5804 68.6282 40.507 68.5024 40.3602C68.3976 40.2344 68.3452 40.0037 68.3452 39.6682V37.9697L68.471 37.8124H69.9178C70.4421 37.8124 70.851 37.7705 71.1445 37.6866C71.4381 37.6027 71.7107 37.3721 71.9623 36.9946C72.214 36.6381 72.5285 36.03 72.906 35.1703L73.9439 32.8113L68.0621 20.2612L65.9861 19.3176V18.8144H73.7867V19.3176L71.3333 20.2612V20.4185L75.3593 29.0997H75.4852L78.7878 20.5758V20.4185L76.5546 19.3176V18.8144H82.6881V19.3176L80.3605 20.3556L74.1326 35.4848C73.9439 35.9671 73.7762 36.3656 73.6294 36.6801C73.5036 37.0156 73.3568 37.3301 73.189 37.6237C73.0213 37.9382 72.7801 38.3157 72.4656 38.756C72.0462 39.3641 71.5639 39.815 71.0187 40.1085C70.4735 40.4231 69.9388 40.5804 69.4146 40.5804ZM90.4097 33.3145C89.0048 33.3145 87.7676 32.9895 86.6982 32.3395C85.6497 31.6685 84.8214 30.7773 84.2133 29.6659C83.6262 28.5336 83.3326 27.2754 83.3326 25.8915C83.3326 24.5075 83.6262 23.2598 84.2133 22.1485C84.8214 21.0161 85.6497 20.1249 86.6982 19.4749C87.7676 18.8248 89.0048 18.4998 90.4097 18.4998C91.8146 18.4998 93.0413 18.8248 94.0898 19.4749C95.1383 20.1249 95.9561 21.0161 96.5432 22.1485C97.1513 23.2598 97.4554 24.5075 97.4554 25.8915C97.4554 27.2754 97.1513 28.5336 96.5432 29.6659C95.9561 30.7773 95.1383 31.6685 94.0898 32.3395C93.0413 32.9895 91.8146 33.3145 90.4097 33.3145ZM90.8186 31.9306C91.6154 31.9306 92.2655 31.6685 92.7687 31.1442C93.272 30.62 93.639 29.949 93.8696 29.1312C94.1003 28.3134 94.2156 27.4432 94.2156 26.5205C94.2156 25.4092 94.0688 24.3502 93.7753 23.3437C93.5027 22.3162 93.0623 21.4774 92.4542 20.8274C91.8461 20.1774 91.0493 19.8523 90.0637 19.8523C89.2669 19.8523 88.6064 20.1145 88.0821 20.6387C87.5579 21.1419 87.17 21.8025 86.9183 22.6203C86.6877 23.4381 86.5724 24.3083 86.5724 25.2309C86.5724 26.3423 86.7191 27.4117 87.0127 28.4392C87.3063 29.4667 87.7676 30.3055 88.3967 30.9555C89.0257 31.6056 89.8331 31.9306 90.8186 31.9306ZM105.948 33.3145C104.71 33.3145 103.693 33 102.897 32.3709C102.121 31.7419 101.733 30.8192 101.733 29.603V20.2927L99.7198 19.3176V18.8144H104.689V28.1561C104.689 29.0368 104.952 29.7078 105.476 30.1692C106.021 30.6305 106.723 30.8611 107.583 30.8611C108.107 30.8611 108.684 30.7773 109.313 30.6095C109.942 30.4208 110.445 30.1482 110.823 29.7917V20.2927L108.684 19.3176V18.8144H113.811V31.5846L115.981 32.4967V33H110.823V31.0184H110.666C109.89 31.7943 109.135 32.3709 108.401 32.7484C107.667 33.1258 106.849 33.3145 105.948 33.3145ZM120.805 33.1573C120.26 33.1573 119.788 32.9581 119.39 32.5596C118.991 32.1612 118.792 31.6894 118.792 31.1442C118.792 30.599 118.991 30.1272 119.39 29.7288C119.788 29.3304 120.26 29.1312 120.805 29.1312C121.35 29.1312 121.822 29.3304 122.22 29.7288C122.619 30.1272 122.818 30.599 122.818 31.1442C122.818 31.6894 122.619 32.1612 122.22 32.5596C121.822 32.9581 121.35 33.1573 120.805 33.1573ZM136.426 33.3145C134.266 33.3145 132.4 32.8742 130.827 31.9935C129.255 31.1128 128.038 29.907 127.179 28.3763C126.319 26.8456 125.889 25.1051 125.889 23.155C125.889 21.6452 126.183 20.2193 126.77 18.8773C127.357 17.5352 128.154 16.34 129.16 15.2915C130.188 14.2431 131.362 13.4253 132.683 12.8382C134.004 12.23 135.409 11.926 136.898 11.926C137.967 11.926 138.869 11.9994 139.603 12.1462C140.337 12.272 140.987 12.4502 141.553 12.6809C142.14 12.8906 142.727 13.1422 143.314 13.4358L143.503 19.0345H142.937L140.767 14.9456C140.054 14.4423 139.404 14.0753 138.817 13.8447C138.25 13.614 137.611 13.4987 136.898 13.4987C135.451 13.4987 134.151 13.8761 132.998 14.631C131.844 15.3859 130.932 16.4344 130.261 17.7764C129.611 19.0974 129.286 20.6282 129.286 22.3686C129.286 24.3188 129.601 25.9963 130.23 27.4012C130.88 28.7852 131.75 29.8441 132.84 30.5781C133.931 31.312 135.136 31.6789 136.457 31.6789C137.548 31.6789 138.46 31.5322 139.194 31.2386C139.949 30.945 140.62 30.599 141.207 30.2006L143.314 26.6778H143.849L143.472 31.7419C142.549 32.2032 141.563 32.5806 140.515 32.8742C139.467 33.1678 138.104 33.3145 136.426 33.3145ZM147.834 33V32.4967L149.815 31.4902V12.9954L147.928 11.3913V11.1396L152.552 9.40969H152.803V31.4902L154.753 32.4967V33H147.834ZM163.019 33.3145C161.782 33.3145 160.765 33 159.968 32.3709C159.192 31.7419 158.804 30.8192 158.804 29.603V20.2927L156.791 19.3176V18.8144H161.761V28.1561C161.761 29.0368 162.023 29.7078 162.547 30.1692C163.092 30.6305 163.795 30.8611 164.655 30.8611C165.179 30.8611 165.755 30.7773 166.384 30.6095C167.014 30.4208 167.517 30.1482 167.894 29.7917V20.2927L165.755 19.3176V18.8144H170.882V31.5846L173.053 32.4967V33H167.894V31.0184H167.737C166.961 31.7943 166.206 32.3709 165.472 32.7484C164.738 33.1258 163.921 33.3145 163.019 33.3145ZM177.027 33.2831V12.9954L175.109 11.3913V11.1396L179.764 9.40969H179.984V20.4185H180.11C180.906 19.7475 181.672 19.2652 182.406 18.9716C183.14 18.6571 183.937 18.4998 184.796 18.4998C185.824 18.4998 186.746 18.7724 187.564 19.3176C188.382 19.8628 189.032 20.6387 189.514 21.6452C189.997 22.6307 190.238 23.826 190.238 25.2309C190.238 26.9294 189.902 28.3868 189.231 29.603C188.581 30.7982 187.69 31.7209 186.558 32.3709C185.446 33 184.209 33.3145 182.846 33.3145C181.965 33.3145 181.148 33.2307 180.393 33.0629C179.638 32.9161 178.935 32.6959 178.285 32.4024L177.247 33.2831H177.027ZM182.878 20.7645C181.871 20.7645 180.906 21.0476 179.984 21.6137V30.5466C180.508 30.987 181.043 31.3015 181.588 31.4902C182.133 31.6789 182.741 31.7733 183.412 31.7733C184.104 31.7733 184.733 31.5846 185.3 31.2071C185.887 30.8297 186.358 30.2216 186.715 29.3828C187.071 28.5231 187.25 27.3907 187.25 25.9858C187.25 24.7906 187.05 23.805 186.652 23.0292C186.254 22.2533 185.719 21.6871 185.048 21.3307C184.398 20.9532 183.674 20.7645 182.878 20.7645Z" fill="#006AF2"/>
<path d="M22.0772 54.7093V54.4576L23.2096 54.0802V50.7964L20.429 46.9842L19.649 46.6571V46.4055H22.5176V46.6571L21.6369 46.9842V47.0345L23.9393 50.2302L26.0278 47.0471V46.9968L25.1094 46.6571V46.4055H27.6508V46.6571L26.8582 46.959L24.1909 50.8216V54.0802L25.3232 54.4576V54.7093H22.0772ZM32.0405 54.8351C31.3695 54.8351 30.7698 54.6799 30.2413 54.3696C29.7129 54.0508 29.2935 53.6189 28.9832 53.0737C28.6812 52.5201 28.5303 51.891 28.5303 51.1864C28.5303 50.4819 28.6812 49.8528 28.9832 49.2992C29.2935 48.7456 29.7129 48.3137 30.2413 48.0033C30.7698 47.6846 31.3695 47.5252 32.0405 47.5252C32.7199 47.5252 33.3238 47.6846 33.8522 48.0033C34.389 48.3137 34.8084 48.7456 35.1104 49.2992C35.4207 49.8528 35.5759 50.4819 35.5759 51.1864C35.5759 51.891 35.4207 52.5201 35.1104 53.0737C34.8084 53.6189 34.389 54.0508 33.8522 54.3696C33.3238 54.6799 32.7199 54.8351 32.0405 54.8351ZM32.267 54.2815C32.9967 54.2815 33.5754 54.0299 34.0032 53.5266C34.4394 53.0233 34.6574 52.3481 34.6574 51.501C34.6574 50.8132 34.5358 50.2135 34.2926 49.7018C34.0577 49.1818 33.7306 48.7792 33.3112 48.494C32.8918 48.2088 32.4095 48.0662 31.8643 48.0662C31.1346 48.0662 30.5475 48.3179 30.1029 48.8211C29.6584 49.3244 29.4361 49.9954 29.4361 50.8342C29.4361 51.5219 29.5577 52.1259 29.801 52.6459C30.0442 53.1659 30.3797 53.5685 30.8075 53.8537C31.2353 54.1389 31.7218 54.2815 32.267 54.2815ZM40.8907 54.8351C40.3455 54.8351 39.859 54.7428 39.4312 54.5583C39.0035 54.3737 38.6638 54.0802 38.4121 53.6776C38.1689 53.2666 38.0473 52.734 38.0473 52.0797V48.2298L37.154 47.9152V47.6636H39.8464V47.9152L38.9531 48.2298V51.9665C38.9531 52.822 39.1419 53.4176 39.5193 53.7531C39.8967 54.0886 40.4126 54.2563 41.0668 54.2563C41.4359 54.2563 41.7714 54.185 42.0733 54.0424C42.3837 53.8915 42.6269 53.6692 42.8031 53.3756C42.9876 53.0737 43.0799 52.692 43.0799 52.2307V48.2046L42.0104 47.9152V47.6636H44.5645V47.9152L43.6838 48.2172V52.0797C43.6838 52.734 43.5622 53.2666 43.3189 53.6776C43.0757 54.0802 42.7444 54.3737 42.325 54.5583C41.9056 54.7428 41.4275 54.8351 40.8907 54.8351ZM46.1969 54.7093V54.4576L47.0902 54.1431V48.2298L46.1969 47.9152V47.6636H48.7384C49.5184 47.6636 50.1307 47.823 50.5753 48.1417C51.0198 48.4604 51.2421 48.8882 51.2421 49.425C51.2421 49.8528 51.1079 50.2135 50.8395 50.507C50.5795 50.8006 50.223 51.0271 49.7701 51.1864L51.7705 54.1808L52.5506 54.4576V54.7093H50.9779L48.8768 51.4381H47.9835V54.1305L48.8139 54.4576V54.7093H46.1969ZM48.6755 48.2046H47.9835V50.8971H48.7384C49.2081 50.8971 49.5814 50.7754 49.8581 50.5322C50.1349 50.289 50.2733 49.966 50.2733 49.5634C50.2733 49.1273 50.1349 48.7918 49.8581 48.5569C49.5814 48.322 49.1871 48.2046 48.6755 48.2046ZM56.4685 54.7093V54.4576L57.4625 54.0802V47.0345L56.4685 46.6571V46.4055H59.5762V46.6571L58.4438 47.0345V54.1179H61.6395L62.3944 51.9665H62.6083V54.7093H56.4685ZM64.3074 54.7093V54.4576L65.1881 54.1431V48.2298L64.3074 47.9152V47.6636H69.5036V49.425H69.2771L68.7487 48.2046H66.094V50.7964H68.0315L68.3587 49.9283H68.5725V52.1804H68.3587L68.0315 51.3248H66.094V54.1682H69.0381L69.5916 52.7843H69.8055V54.7093H64.3074ZM71.1048 54.7093V54.4576L71.7213 54.2186L74.5143 47.6007H74.9295L77.6975 54.1808L78.402 54.4576V54.7093H75.8228V54.4576L76.7287 54.1934L75.8857 52.1678H73.2184L72.3881 54.206L73.3317 54.4576V54.7093H71.1048ZM73.4323 51.6394H75.6718L74.5395 48.9092L73.4323 51.6394ZM79.6411 54.7093V54.4576L80.5344 54.1431V48.2298L79.6411 47.9152V47.6636H82.1826C82.9626 47.6636 83.5749 47.823 84.0195 48.1417C84.464 48.4604 84.6863 48.8882 84.6863 49.425C84.6863 49.8528 84.5521 50.2135 84.2837 50.507C84.0237 50.8006 83.6672 51.0271 83.2143 51.1864L85.2147 54.1808L85.9948 54.4576V54.7093H84.4221L82.321 51.4381H81.4277V54.1305L82.2581 54.4576V54.7093H79.6411ZM82.1197 48.2046H81.4277V50.8971H82.1826C82.6523 50.8971 83.0255 50.7754 83.3023 50.5322C83.5791 50.289 83.7175 49.966 83.7175 49.5634C83.7175 49.1273 83.5791 48.7918 83.3023 48.5569C83.0255 48.322 82.6313 48.2046 82.1197 48.2046ZM86.7296 54.7093V54.4576L87.6103 54.1431V48.2172L86.7296 47.9152V47.6636H88.3778L92.6681 53.0737V48.2172L91.6615 47.9152V47.6636H94.1401V47.9152L93.272 48.2172V54.7596H92.8694L88.2016 48.9469V54.1053L89.2585 54.4576V54.7093H86.7296ZM95.7258 54.7093V54.4576L96.5561 54.1431V48.2298L95.7258 47.9152V47.6636H98.305V47.9152L97.462 48.2298V54.1431L98.305 54.4576V54.7093H95.7258ZM99.9623 54.7093V54.4576L100.843 54.1431V48.2172L99.9623 47.9152V47.6636H101.61L105.901 53.0737V48.2172L104.894 47.9152V47.6636H107.373V47.9152L106.505 48.2172V54.7596H106.102L101.434 48.9469V54.1053L102.491 54.4576V54.7093H99.9623ZM112.632 54.8351C111.927 54.8351 111.298 54.6883 110.744 54.3947C110.199 54.0928 109.767 53.686 109.449 53.1743C109.138 52.6543 108.983 52.0587 108.983 51.3877C108.983 50.8342 109.079 50.3267 109.272 49.8654C109.474 49.3957 109.75 48.9889 110.103 48.645C110.455 48.2927 110.858 48.0201 111.311 47.8272C111.772 47.6343 112.267 47.5378 112.795 47.5378C113.357 47.5378 113.806 47.5881 114.141 47.6888C114.477 47.781 114.796 47.9027 115.098 48.0536L115.161 49.7773H114.947L114.368 48.6072C114.058 48.3975 113.785 48.2507 113.55 48.1669C113.315 48.0746 113.051 48.0285 112.757 48.0285C112.17 48.0285 111.654 48.1585 111.21 48.4185C110.774 48.6701 110.43 49.014 110.178 49.4502C109.935 49.8863 109.813 50.3728 109.813 50.9096C109.813 51.6226 109.948 52.2307 110.216 52.734C110.484 53.2372 110.845 53.623 111.298 53.8915C111.759 54.1599 112.267 54.2941 112.82 54.2941C113.08 54.2941 113.332 54.2773 113.575 54.2437C113.819 54.2018 114.074 54.1263 114.343 54.0173V52.1804L113.336 51.8407V51.6016H115.978V51.8407L115.186 52.193V53.9921C114.875 54.2521 114.481 54.4576 114.003 54.6086C113.525 54.7596 113.068 54.8351 112.632 54.8351ZM120.568 54.7093V54.4576L121.574 54.0802V47.0345L120.568 46.6571V46.4055H123.524C124.514 46.4055 125.307 46.5858 125.902 46.9465C126.506 47.3071 126.808 47.8775 126.808 48.6576C126.808 49.1189 126.657 49.5299 126.355 49.8905C126.053 50.2428 125.634 50.5238 125.097 50.7335C124.569 50.9432 123.965 51.048 123.285 51.048H122.556V54.0802L123.688 54.4576V54.7093H120.568ZM122.556 46.9968V50.4567H123.575C124.237 50.4567 124.766 50.3015 125.16 49.9912C125.554 49.6725 125.751 49.2615 125.751 48.7582C125.751 48.1375 125.55 47.6888 125.147 47.412C124.753 47.1352 124.2 46.9968 123.487 46.9968H122.556ZM127.205 54.7093V54.4576L127.822 54.2186L130.615 47.6007H131.03L133.798 54.1808L134.503 54.4576V54.7093H131.924V54.4576L132.829 54.1934L131.986 52.1678H129.319L128.489 54.206L129.432 54.4576V54.7093H127.205ZM129.533 51.6394H131.773L130.64 48.9092L129.533 51.6394ZM135.742 54.7093V54.4576L136.635 54.1431V48.2298L135.742 47.9152V47.6636H138.283C139.063 47.6636 139.676 47.823 140.12 48.1417C140.565 48.4604 140.787 48.8882 140.787 49.425C140.787 49.8528 140.653 50.2135 140.384 50.507C140.124 50.8006 139.768 51.0271 139.315 51.1864L141.315 54.1808L142.095 54.4576V54.7093H140.523L138.422 51.4381H137.528V54.1305L138.359 54.4576V54.7093H135.742ZM138.22 48.2046H137.528V50.8971H138.283C138.753 50.8971 139.126 50.7754 139.403 50.5322C139.68 50.289 139.818 49.966 139.818 49.5634C139.818 49.1273 139.68 48.7918 139.403 48.5569C139.126 48.322 138.732 48.2046 138.22 48.2046ZM144.203 54.7093V54.4576L145.311 54.1431V48.2046H143.323L142.769 49.7018H142.543V47.6636H149.01V49.7018H148.783L148.217 48.2046H146.216V54.1431L147.336 54.4576V54.7093H144.203ZM150.35 54.7093V54.4576L151.23 54.1431V48.2172L150.35 47.9152V47.6636H151.998L156.288 53.0737V48.2172L155.282 47.9152V47.6636H157.76V47.9152L156.892 48.2172V54.7596H156.489L151.822 48.9469V54.1053L152.879 54.4576V54.7093H150.35ZM159.283 54.7093V54.4576L160.164 54.1431V48.2298L159.283 47.9152V47.6636H164.479V49.425H164.253L163.724 48.2046H161.07V50.7964H163.007L163.334 49.9283H163.548V52.1804H163.334L163.007 51.3248H161.07V54.1682H164.014L164.567 52.7843H164.781V54.7093H159.283ZM166.483 54.7093V54.4576L167.376 54.1431V48.2298L166.483 47.9152V47.6636H169.024C169.804 47.6636 170.417 47.823 170.861 48.1417C171.306 48.4604 171.528 48.8882 171.528 49.425C171.528 49.8528 171.394 50.2135 171.126 50.507C170.865 50.8006 170.509 51.0271 170.056 51.1864L172.057 54.1808L172.837 54.4576V54.7093H171.264L169.163 51.4381H168.27V54.1305L169.1 54.4576V54.7093H166.483ZM168.961 48.2046H168.27V50.8971H169.024C169.494 50.8971 169.867 50.7754 170.144 50.5322C170.421 50.289 170.559 49.966 170.559 49.5634C170.559 49.1273 170.421 48.7918 170.144 48.5569C169.867 48.322 169.473 48.2046 168.961 48.2046Z" fill="#0A2540"/>
</svg>
