<svg width="208" height="44" viewBox="0 0 208 44" fill="none" xmlns="http://www.w3.org/2000/svg">
<path d="M44.0282 22C44.0282 18.8051 40.2533 16.7693 35.8021 17.0929C34.9373 17.1543 33.9454 17.2977 32.9166 17.4861C33.7773 16.8881 34.5766 16.2901 35.2365 15.7248C38.6138 12.8125 39.8393 8.70006 37.5809 6.44312C35.3226 4.18618 31.2075 5.41091 28.2933 8.78607C27.7277 9.44144 27.1252 10.2443 26.5309 11.1044C26.7194 10.0763 26.8587 9.08509 26.9243 8.22082C27.2481 3.77658 25.207 0 22.0141 0C18.8212 0 16.7801 3.77248 17.1039 8.22082C17.1653 9.08509 17.3088 10.0763 17.4973 11.1044C16.8989 10.2443 16.3005 9.44554 15.7349 8.78607C12.8207 5.41501 8.70563 4.18618 6.44725 6.44312C4.18887 8.70006 5.41438 12.8125 8.7917 15.7248C9.44749 16.2901 10.2508 16.8922 11.1116 17.4861C10.0828 17.2977 9.09091 17.1584 8.22608 17.0929C3.779 16.7693 0 18.8092 0 22C0 25.1908 3.7749 27.2307 8.22608 26.9071C9.09091 26.8457 10.0828 26.7023 11.1116 26.5139C10.2508 27.1119 9.45159 27.7099 8.7917 28.2752C5.41847 31.1875 4.18887 35.2999 6.44725 37.5569C8.70563 39.8138 12.8207 38.5891 15.7349 35.2139C16.3005 34.5586 16.903 33.7557 17.4973 32.8956C17.3088 33.9237 17.1694 34.9149 17.1039 35.7792C16.7801 40.2234 18.8212 44 22.0141 44C25.207 44 27.2481 40.2275 26.9243 35.7792C26.8628 34.9149 26.7194 33.9237 26.5309 32.8956C27.1293 33.7557 27.7277 34.5545 28.2933 35.2139C31.2075 38.585 35.3226 39.8138 37.5809 37.5569C39.8393 35.2999 38.6138 31.1875 35.2365 28.2752C34.5807 27.7099 33.7773 27.1078 32.9166 26.5139C33.9454 26.7023 34.9373 26.8416 35.8021 26.9071C40.2492 27.2307 44.0282 25.1908 44.0282 22Z" fill="#006AF2"/>
<path d="M63.1461 13.137V31.5377H59.6811V13.137H63.1461ZM68.862 13.137V15.8794H54.0283V13.137H68.862Z" fill="#0A2540"/>
<path d="M73.3766 20.6565V31.5377H70.0381V17.8636H73.1996L73.3766 20.6565ZM77.5372 17.7751L77.4866 20.884C77.3011 20.8503 77.0903 20.825 76.8543 20.8082C76.6267 20.7913 76.4117 20.7829 76.2093 20.7829C75.6951 20.7829 75.244 20.8545 74.8562 20.9978C74.4684 21.1326 74.1438 21.3306 73.8825 21.5917C73.6296 21.8529 73.4357 22.1731 73.3008 22.5522C73.1659 22.9229 73.09 23.3442 73.0731 23.816L72.3523 23.7275C72.3523 22.8597 72.4408 22.0551 72.6179 21.3137C72.7949 20.5723 73.0521 19.9235 73.3893 19.3675C73.7265 18.8114 74.1481 18.3817 74.6539 18.0784C75.1682 17.7667 75.7583 17.6108 76.4243 17.6108C76.6098 17.6108 76.8079 17.6277 77.0187 17.6614C77.2379 17.6866 77.4107 17.7245 77.5372 17.7751Z" fill="#0A2540"/>
<path d="M87.5148 28.2898V17.8636H90.8787V31.5377H87.7172L87.5148 28.2898ZM87.9448 25.4589L88.9818 25.4336C88.9818 26.352 88.8806 27.1987 88.6783 27.9739C88.4759 28.749 88.1598 29.423 87.7298 29.9959C87.3083 30.5604 86.7729 31.0027 86.1238 31.3229C85.4746 31.6346 84.7074 31.7905 83.8222 31.7905C83.1478 31.7905 82.5323 31.6978 81.9759 31.5125C81.4195 31.3187 80.9389 31.0196 80.5343 30.6152C80.138 30.2023 79.8303 29.6757 79.6111 29.0354C79.3919 28.3867 79.2823 27.6074 79.2823 26.6974V17.8636H82.6208V26.7227C82.6208 27.1777 82.6714 27.5568 82.7726 27.8601C82.8822 28.1634 83.0297 28.412 83.2152 28.6057C83.4091 28.7911 83.6325 28.9259 83.8854 29.0102C84.1468 29.086 84.425 29.1239 84.7201 29.1239C85.5294 29.1239 86.1659 28.9638 86.6296 28.6437C87.1017 28.3151 87.439 27.877 87.6413 27.3293C87.8436 26.7733 87.9448 26.1498 87.9448 25.4589Z" fill="#0A2540"/>
<path d="M99.9838 31.7905C98.9468 31.7905 98.0152 31.622 97.189 31.285C96.3628 30.948 95.6588 30.4804 95.0771 29.8822C94.5038 29.2756 94.0612 28.572 93.7493 27.7716C93.4458 26.9628 93.294 26.095 93.294 25.1682V24.6627C93.294 23.6096 93.4458 22.6533 93.7493 21.7939C94.0528 20.9261 94.4828 20.1805 95.0392 19.557C95.5956 18.9336 96.2616 18.4533 97.0372 18.1163C97.8129 17.7793 98.6686 17.6108 99.6044 17.6108C100.574 17.6108 101.43 17.7751 102.172 18.1037C102.913 18.4238 103.533 18.8788 104.03 19.4686C104.528 20.0583 104.903 20.7661 105.156 21.5917C105.409 22.409 105.535 23.3147 105.535 24.3089V25.7117H94.8116V23.4116H102.247V23.1588C102.231 22.628 102.129 22.1436 101.944 21.7055C101.758 21.2589 101.472 20.9051 101.084 20.6439C100.696 20.3743 100.195 20.2395 99.5791 20.2395C99.0817 20.2395 98.6475 20.349 98.2766 20.5681C97.914 20.7787 97.6105 21.082 97.366 21.478C97.13 21.8656 96.9529 22.3289 96.8349 22.8682C96.7169 23.4074 96.6579 24.0056 96.6579 24.6627V25.1682C96.6579 25.7412 96.7337 26.272 96.8855 26.7606C97.0457 27.2493 97.2775 27.6748 97.581 28.037C97.893 28.3909 98.2639 28.6689 98.6939 28.8711C99.1323 29.0649 99.6297 29.1618 100.186 29.1618C100.886 29.1618 101.518 29.027 102.083 28.7574C102.656 28.4794 103.154 28.0707 103.575 27.5315L105.257 29.2756C104.97 29.6968 104.583 30.1012 104.094 30.4888C103.613 30.8763 103.031 31.1923 102.349 31.4366C101.666 31.6725 100.877 31.7905 99.9838 31.7905Z" fill="#0A2540"/>
<path d="M111.605 30.0212L115.273 17.8636H118.852L113.363 33.6103C113.237 33.9473 113.072 34.3138 112.87 34.7098C112.676 35.1058 112.415 35.4807 112.086 35.8346C111.757 36.1969 111.344 36.4918 110.847 36.7192C110.358 36.9467 109.763 37.0605 109.064 37.0605C108.76 37.0605 108.49 37.0394 108.254 36.9973C108.018 36.9552 107.769 36.9004 107.508 36.833V34.3307C107.592 34.3391 107.689 34.3433 107.799 34.3433C107.917 34.3518 108.018 34.356 108.102 34.356C108.591 34.356 108.996 34.297 109.316 34.179C109.637 34.0695 109.894 33.8884 110.088 33.6356C110.29 33.3913 110.459 33.0711 110.594 32.6751L111.605 30.0212ZM109.797 17.8636L112.895 27.9359L113.439 31.4619L111.137 31.8789L106.193 17.8636H109.797Z" fill="#0A2540"/>
<path d="M119.674 24.8397V24.5743C119.674 23.5717 119.817 22.6491 120.103 21.8066C120.39 20.9556 120.807 20.2184 121.355 19.595C121.903 18.9715 122.574 18.487 123.366 18.1416C124.159 17.7877 125.061 17.6108 126.072 17.6108C127.101 17.6108 128.011 17.7877 128.804 18.1416C129.605 18.487 130.279 18.9715 130.827 19.595C131.375 20.2184 131.793 20.9556 132.079 21.8066C132.366 22.6491 132.509 23.5717 132.509 24.5743V24.8397C132.509 25.8338 132.366 26.7564 132.079 27.6074C131.793 28.4499 131.375 29.1871 130.827 29.819C130.279 30.4424 129.609 30.9269 128.817 31.2723C128.024 31.6178 127.118 31.7905 126.098 31.7905C125.086 31.7905 124.18 31.6178 123.379 31.2723C122.578 30.9269 121.903 30.4424 121.355 29.819C120.807 29.1871 120.39 28.4499 120.103 27.6074C119.817 26.7564 119.674 25.8338 119.674 24.8397ZM123.012 24.5743V24.8397C123.012 25.4379 123.071 25.9981 123.189 26.5205C123.307 27.0429 123.488 27.502 123.733 27.898C123.977 28.294 124.294 28.6057 124.681 28.8332C125.078 29.0523 125.55 29.1618 126.098 29.1618C126.637 29.1618 127.101 29.0523 127.489 28.8332C127.877 28.6057 128.193 28.294 128.437 27.898C128.69 27.502 128.876 27.0429 128.994 26.5205C129.112 25.9981 129.171 25.4379 129.171 24.8397V24.5743C129.171 23.9845 129.112 23.4326 128.994 22.9187C128.876 22.3963 128.69 21.9372 128.437 21.5412C128.193 21.1368 127.872 20.8208 127.476 20.5933C127.088 20.3574 126.62 20.2395 126.072 20.2395C125.533 20.2395 125.069 20.3574 124.681 20.5933C124.294 20.8208 123.977 21.1368 123.733 21.5412C123.488 21.9372 123.307 22.3963 123.189 22.9187C123.071 23.4326 123.012 23.9845 123.012 24.5743Z" fill="#0A2540"/>
<path d="M143.081 28.2898V17.8636H146.445V31.5377H143.284L143.081 28.2898ZM143.511 25.4589L144.548 25.4336C144.548 26.352 144.447 27.1987 144.245 27.9739C144.042 28.749 143.726 29.423 143.296 29.9959C142.875 30.5604 142.339 31.0027 141.69 31.3229C141.041 31.6346 140.274 31.7905 139.389 31.7905C138.714 31.7905 138.099 31.6978 137.542 31.5125C136.986 31.3187 136.505 31.0196 136.101 30.6152C135.704 30.2023 135.397 29.6757 135.177 29.0354C134.958 28.3867 134.849 27.6074 134.849 26.6974V17.8636H138.187V26.7227C138.187 27.1777 138.238 27.5568 138.339 27.8601C138.449 28.1634 138.596 28.412 138.782 28.6057C138.975 28.7911 139.199 28.9259 139.452 29.0102C139.713 29.086 139.991 29.1239 140.286 29.1239C141.096 29.1239 141.732 28.9638 142.196 28.6437C142.668 28.3151 143.005 27.877 143.208 27.3293C143.41 26.7733 143.511 26.1498 143.511 25.4589Z" fill="#0A2540"/>
<path d="M149.543 29.9074C149.543 29.4019 149.716 28.9765 150.062 28.631C150.407 28.2856 150.875 28.1129 151.465 28.1129C152.056 28.1129 152.524 28.2856 152.869 28.631C153.215 28.9765 153.388 29.4019 153.388 29.9074C153.388 30.4045 153.215 30.8258 152.869 31.1712C152.524 31.5082 152.056 31.6767 151.465 31.6767C150.875 31.6767 150.407 31.5082 150.062 31.1712C149.716 30.8258 149.543 30.4045 149.543 29.9074Z" fill="#0A2540"/>
<path d="M167.791 25.4842H171.269C171.176 26.7143 170.835 27.8053 170.245 28.7574C169.655 29.701 168.833 30.4424 167.779 30.9817C166.725 31.5209 165.448 31.7905 163.947 31.7905C162.792 31.7905 161.751 31.5883 160.823 31.1839C159.905 30.771 159.116 30.1855 158.459 29.4272C157.81 28.6605 157.312 27.7422 156.966 26.6722C156.621 25.5937 156.448 24.3847 156.448 23.0451V21.6423C156.448 20.3027 156.625 19.0936 156.979 18.0152C157.333 16.9368 157.839 16.0184 158.497 15.2602C159.163 14.4935 159.959 13.9037 160.887 13.4909C161.823 13.078 162.868 12.8716 164.023 12.8716C165.524 12.8716 166.792 13.1496 167.829 13.7057C168.866 14.2533 169.671 15.0074 170.245 15.9679C170.818 16.9284 171.164 18.0321 171.282 19.279H167.804C167.737 18.5039 167.568 17.8467 167.298 17.3075C167.037 16.7683 166.641 16.3597 166.11 16.0816C165.587 15.7952 164.891 15.6519 164.023 15.6519C163.348 15.6519 162.754 15.7783 162.24 16.0311C161.734 16.2838 161.312 16.663 160.975 17.1685C160.638 17.6656 160.385 18.289 160.216 19.0389C160.048 19.7803 159.964 20.6397 159.964 21.617V23.0451C159.964 23.9803 160.039 24.8186 160.191 25.56C160.343 26.3014 160.579 26.9291 160.899 27.4431C161.22 27.957 161.633 28.3488 162.139 28.6184C162.645 28.888 163.247 29.0228 163.947 29.0228C164.799 29.0228 165.49 28.888 166.021 28.6184C166.561 28.3488 166.969 27.9528 167.248 27.4304C167.534 26.9081 167.716 26.2593 167.791 25.4842Z" fill="#0A2540"/>
<path d="M177.251 12.126V31.5377H173.899V12.126H177.251Z" fill="#0A2540"/>
<path d="M188.581 28.2898V17.8636H191.945V31.5377H188.784L188.581 28.2898ZM189.011 25.4589L190.048 25.4336C190.048 26.352 189.947 27.1987 189.745 27.9739C189.542 28.749 189.226 29.423 188.796 29.9959C188.375 30.5604 187.839 31.0027 187.19 31.3229C186.541 31.6346 185.774 31.7905 184.889 31.7905C184.214 31.7905 183.599 31.6978 183.042 31.5125C182.486 31.3187 182.005 31.0196 181.601 30.6152C181.205 30.2023 180.897 29.6757 180.678 29.0354C180.458 28.3867 180.349 27.6074 180.349 26.6974V17.8636H183.687V26.7227C183.687 27.1777 183.738 27.5568 183.839 27.8601C183.949 28.1634 184.096 28.412 184.282 28.6057C184.476 28.7911 184.699 28.9259 184.952 29.0102C185.213 29.086 185.492 29.1239 185.787 29.1239C186.596 29.1239 187.232 28.9638 187.696 28.6437C188.168 28.3151 188.506 27.877 188.708 27.3293C188.91 26.7733 189.011 26.1498 189.011 25.4589Z" fill="#0A2540"/>
<path d="M194.892 12.126H198.243V28.5173L197.914 31.5377H194.892V12.126ZM207.044 24.5616V24.827C207.044 25.8465 206.931 26.7817 206.703 27.6326C206.484 28.4836 206.151 29.2208 205.704 29.8443C205.257 30.4593 204.701 30.9395 204.035 31.285C203.377 31.622 202.606 31.7905 201.721 31.7905C200.877 31.7905 200.144 31.6262 199.52 31.2976C198.905 30.969 198.386 30.5056 197.965 29.9074C197.543 29.3008 197.206 28.5889 196.953 27.7716C196.7 26.946 196.51 26.0445 196.384 25.0671V24.3468C196.51 23.361 196.7 22.4595 196.953 21.6423C197.206 20.825 197.543 20.1131 197.965 19.5065C198.386 18.8999 198.905 18.4323 199.52 18.1037C200.136 17.7751 200.861 17.6108 201.695 17.6108C202.589 17.6108 203.369 17.7835 204.035 18.129C204.709 18.466 205.266 18.9462 205.704 19.5697C206.151 20.1847 206.484 20.9177 206.703 21.7687C206.931 22.6112 207.044 23.5422 207.044 24.5616ZM203.693 24.827V24.5616C203.693 23.9803 203.647 23.4326 203.554 22.9187C203.461 22.3963 203.31 21.9372 203.099 21.5412C202.888 21.1452 202.602 20.8335 202.239 20.606C201.877 20.3785 201.421 20.2648 200.873 20.2648C200.351 20.2648 199.904 20.3532 199.533 20.5302C199.17 20.7071 198.867 20.9514 198.622 21.2631C198.386 21.5749 198.201 21.9414 198.066 22.3626C197.939 22.7839 197.855 23.2389 197.813 23.7275V25.699C197.872 26.3478 198.011 26.9333 198.23 27.4557C198.449 27.9696 198.774 28.3783 199.204 28.6816C199.642 28.9849 200.207 29.1365 200.899 29.1365C201.438 29.1365 201.889 29.0312 202.252 28.8206C202.614 28.6015 202.901 28.2982 203.112 27.9107C203.322 27.5147 203.47 27.0555 203.554 26.5331C203.647 26.0108 203.693 25.4421 203.693 24.827Z" fill="#0A2540"/>
</svg>
