<?xml version="1.0" encoding="UTF-8"?>
<svg id="Layer_1" data-name="Layer 1" xmlns="http://www.w3.org/2000/svg" xmlns:xlink="http://www.w3.org/1999/xlink" viewBox="0 0 668.67 752.64">
  <defs>
    <style>
      .cls-1 {
        fill: #3086f4;
      }

      .cls-1, .cls-2, .cls-3, .cls-4, .cls-5, .cls-6, .cls-7, .cls-8, .cls-9 {
        stroke-width: 0px;
      }

      .cls-2 {
        fill: #ffc176;
      }

      .cls-4 {
        fill: none;
      }

      .cls-5 {
        fill: #6680ff;
      }

      .cls-6 {
        fill: #fff;
      }

      .cls-7 {
        fill: #006af2;
      }

      .cls-8 {
        fill: #fff9f0;
      }

      .cls-10 {
        clip-path: url(#clippath);
      }

      .cls-9 {
        fill: #ffc727;
      }
    </style>
    <clipPath id="clippath">
      <rect class="cls-4" x="0" width="668.67" height="752.63"/>
    </clipPath>
  </defs>
  <g class="cls-10">
    <g>
      <path class="cls-1" d="m218.3,743.71c98.2,3.3,70.95,2.38,75.87,2.55l19.59.66c1.89.06,3.35-1.66,2.98-3.52l-1.78-9.01c-.8-4.08-3.56-7.5-7.38-9.16l-1.48-.65-12.12-5.28-10.74-15.34-65.5,4.17c-.23,3.33.84-12.03-2.26,32.44-.12,1.67,1.18,3.1,2.83,3.15h0Z"/>
      <path class="cls-5" d="m313.75,747.45l-95.46-3.2c-1.95-.07-3.49-1.74-3.35-3.73l2.26-32.44c.02-.27.23-.48.5-.5l65.5-4.17c.18-.03.37.08.47.23l10.66,15.21,13.47,5.88c3.98,1.73,6.85,5.29,7.69,9.54l1.78,9.01c.4,2.06-1.08,4.16-3.53,4.16h0Zm-95.51-38.83l-2.23,31.98c-.1,1.36.95,2.53,2.31,2.58l95.46,3.2c1.47.09,2.74-1.31,2.44-2.88l-1.78-9.01c-.77-3.9-3.41-7.18-7.07-8.77l-13.61-5.94c-.09-.04-.17-.1-.23-.19l-10.57-15.09-64.73,4.12h0Z"/>
      <path class="cls-3" d="m218.3,743.71l20.11.68c-1.89-10.48-10.23-19.47-21.71-21.38l-1.23,17.55c-.12,1.67,1.18,3.1,2.83,3.15h0Z"/>
      <path class="cls-3" d="m238.41,744.92c-31.06-1.04-15.68-.53-20.12-.67-1.95-.07-3.49-1.75-3.35-3.73l1.23-17.55c.02-.32.31-.54.62-.49,11.37,1.9,20.17,10.79,22.15,21.81.06.33-.19.63-.53.63h0Zm-21.22-21.29l-1.19,16.96c-.09,1.36.96,2.53,2.31,2.58l19.43.65c-2.06-9.94-9.99-18.18-20.56-20.19h0Z"/>
      <path class="cls-3" d="m294.17,746.25l19.59.66c1.89.06,3.35-1.66,2.98-3.52l-1.78-9.01c-.8-4.08-3.56-7.5-7.38-9.16l-1.48-.65c-1.51.67-2.96,1.55-4.33,2.63-5.96,4.71-8.61,12.04-7.6,19.06h0Z"/>
      <path class="cls-3" d="m313.75,747.45l-19.59-.66c-.26-.01-.48-.2-.51-.46-1.07-7.42,1.92-14.91,7.79-19.55,1.39-1.1,2.88-2.01,4.44-2.7.14-.06.29-.06.43,0l1.48.65c3.98,1.73,6.85,5.29,7.69,9.54l1.78,9.01c.4,2.06-1.08,4.16-3.53,4.16h0Zm-19.1-1.71l19.14.64c1.47.08,2.74-1.32,2.44-2.88l-1.78-9.01c-.77-3.9-3.41-7.18-7.07-8.77l-1.27-.56c-1.4.65-2.75,1.47-4,2.47-5.46,4.31-8.29,11.22-7.46,18.11h0Z"/>
      <path class="cls-3" d="m236.96,706.3l52.44,6.45-6.17-8.81-46.27,2.36Z"/>
      <path class="cls-3" d="m289.34,713.29l-52.44-6.45c-.27-.04-.48-.27-.47-.55.01-.28.23-.5.51-.52l46.27-2.36c.19-.02.36.07.47.23l6.17,8.81c.26.38-.04.9-.5.84h0Zm-46.19-6.77l45.13,5.55-5.31-7.58-39.82,2.03Z"/>
      <path class="cls-1" d="m1.85,698.83c81.89,54.3,59.16,39.23,63.27,41.95l16.34,10.83c1.58,1.04,3.72.34,4.39-1.43l3.21-8.61c1.45-3.89.9-8.26-1.48-11.67l-.92-1.33-7.55-10.86-1.1-18.69-57.96-30.8c-1.94,2.71,7.02-9.8-18.94,26.44-.97,1.36-.62,3.26.76,4.17h0Z"/>
      <path class="cls-5" d="m81.16,752.06L1.55,699.28c-1.63-1.08-2.05-3.32-.9-4.92l18.94-26.44c.16-.22.45-.29.69-.16l57.96,30.8c.16.09.27.26.28.44l1.1,18.54,8.39,12.07c2.48,3.55,3.06,8.1,1.54,12.16l-3.21,8.61c-.8,2.12-3.34,2.92-5.19,1.7h0Zm-60.97-83.14l-18.67,26.06c-.8,1.11-.51,2.66.62,3.41l79.61,52.78c1.28.85,3.04.28,3.59-1.18l3.21-8.6c1.39-3.73.86-7.91-1.42-11.17l-8.47-12.19c-.06-.08-.09-.17-.1-.27l-1.09-18.39-57.28-30.43h0Z"/>
      <path class="cls-3" d="m1.85,698.83l16.76,11.12c3.89-9.92,1.5-21.94-7.27-29.59l-10.25,14.3c-.97,1.36-.62,3.26.76,4.17h0Z"/>
      <path class="cls-3" d="m18.31,710.4l-16.76-11.12c-1.63-1.08-2.05-3.32-.9-4.92l10.25-14.3c.17-.23.52-.32.79-.09,8.9,7.76,11.41,20.01,7.42,30.19-.12.31-.51.44-.79.25Zm-6.89-29.24l-9.9,13.82c-.8,1.11-.51,2.66.62,3.41l16.2,10.75c3.45-9.53,1.04-20.7-6.92-27.97h0Z"/>
      <path class="cls-3" d="m65.12,740.78l16.34,10.83c1.58,1.04,3.72.34,4.39-1.43l3.21-8.61c1.45-3.89.9-8.25-1.48-11.67l-.92-1.34c-1.64-.22-3.34-.23-5.07-.03-7.55.89-13.64,5.74-16.46,12.24Z"/>
      <path class="cls-3" d="m81.16,752.06l-16.34-10.83c-.21-.15-.3-.42-.19-.66,2.98-6.88,9.45-11.69,16.89-12.56,1.76-.21,3.51-.2,5.2.03.15.02.28.1.37.23l.92,1.34c2.48,3.55,3.06,8.1,1.54,12.16l-3.21,8.61c-.8,2.12-3.34,2.92-5.18,1.7h0Zm-15.37-11.47l15.96,10.58c1.28.85,3.04.28,3.59-1.18l3.21-8.6c1.39-3.73.86-7.91-1.42-11.17l-.79-1.14c-1.53-.18-3.11-.18-4.7,0-6.91.81-12.94,5.21-15.85,11.52h0Z"/>
      <path class="cls-3" d="m37.39,678.19l41.23,31.57-.63-10.74-40.59-20.83Z"/>
      <path class="cls-3" d="m78.3,710.19l-41.23-31.57c-.22-.17-.28-.48-.13-.71.15-.24.45-.31.7-.19l40.6,20.83c.17.09.28.26.29.45l.63,10.74c.03.46-.5.74-.86.46Zm-35.85-28.8l35.57,27.24-.55-9.27-35.02-17.97Z"/>
      <path class="cls-7" d="m360.28,131.15c-8.33,62.27-45.03,100.97-94.77,111.86-6.62,1.46-13.46,2.41-20.52,2.87-15.31.97-31.54-.41-48.32-4.28l2.54-65.04c62.34,25.32,94.75-9.96,117.32-69.8l43.75,24.39h0Z"/>
      <path class="cls-3" d="m265.51,243c-6.62,1.46-13.46,2.41-20.52,2.87l-.99-38.38,21.51,35.51h0Z"/>
      <path class="cls-4" d="m545.78,20.16v325.09c0,10.73-8.71,19.42-19.44,19.42h-21.11c10.73,0,19.42-8.69,19.42-19.42V20.16c0-10.73-8.69-19.42-19.42-19.42h21.11c10.73,0,19.44,8.69,19.44,19.42Z"/>
      <path class="cls-3" d="m526.35,365.4h-21.11v-1.47c10.3,0,18.68-8.38,18.68-18.68V20.16c0-10.3-8.38-18.68-18.68-18.68V0h21.11c11.12,0,20.17,9.04,20.17,20.15v325.09c0,11.11-9.05,20.15-20.17,20.15h0Zm-13.56-1.47h13.56c10.31,0,18.7-8.38,18.7-18.68V20.16c0-10.3-8.39-18.68-18.7-18.68h-13.56c7.38,2.99,12.6,10.24,12.6,18.68v325.09c0,8.44-5.22,15.69-12.6,18.68Z"/>
      <path class="cls-8" d="m505.03.74h-196.95c-10.73,0-19.43,8.7-19.43,19.43v325.08c0,10.73,8.7,19.43,19.43,19.43h196.95c10.73,0,19.43-8.7,19.43-19.43V20.17c0-10.73-8.7-19.43-19.43-19.43Z"/>
      <path class="cls-3" d="m505.03,365.21h-196.95c-11.01,0-19.96-8.96-19.96-19.96V20.17c0-11.01,8.96-19.96,19.96-19.96h196.95c11.01,0,19.96,8.96,19.96,19.96v325.08c0,11.01-8.96,19.96-19.96,19.96ZM308.08,1.28c-10.42,0-18.89,8.47-18.89,18.89v325.08c0,10.42,8.47,18.89,18.89,18.89h196.95c10.42,0,18.89-8.47,18.89-18.89V20.17c0-10.42-8.47-18.89-18.89-18.89h-196.95Z"/>
      <path class="cls-7" d="m447.51,1.28l-8.84,12.04c-2.45,3.33-6.33,5.3-10.47,5.3h-44.17c-4.13,0-8.02-1.97-10.47-5.3l-8.84-12.04h82.78Z"/>
      <path class="cls-8" d="m288.66,311.17v34.08c0,10.73,8.7,19.43,19.43,19.43h196.95c10.73,0,19.43-8.7,19.43-19.43v-34.08h-235.8Z"/>
      <path class="cls-3" d="m505.03,365.21h-196.95c-11.01,0-19.96-8.96-19.96-19.96v-34.08c0-.3.24-.54.54-.54h235.8c.3,0,.54.24.54.54v34.08c0,11.01-8.96,19.96-19.96,19.96h0Zm-215.84-53.5v33.54c0,10.42,8.47,18.89,18.89,18.89h196.95c10.42,0,18.89-8.47,18.89-18.89v-33.54h-234.73Z"/>
      <path class="cls-9" d="m426.84,256.44c0,15.51-12.57,28.09-28.09,28.09s-28.09-12.58-28.09-28.09,12.58-28.09,28.09-28.09,28.09,12.57,28.09,28.09Z"/>
      <path class="cls-3" d="m398.36,263.3l-8.7-9.26c-.2-.22-.19-.55.02-.76.22-.2.56-.19.76.02l8.34,8.87,26.06-24.03c.22-.2.56-.19.76.03.2.22.19.56-.03.76l-26.46,24.39c-.21.2-.55.19-.75-.03h0Z"/>
      <path class="cls-2" d="m417.84,330.63h-31.9c-4.03,0-7.29,3.26-7.29,7.29h0c0,4.03,3.26,7.29,7.29,7.29h31.9c4.03,0,7.29-3.26,7.29-7.29h0c0-4.03-3.27-7.29-7.29-7.29Z"/>
      <path class="cls-3" d="m74.35,375.62s63.47,33.76,96.8,33.74c33.33-.02,9.48-58.79,9.48-58.79,0,0-67.66-7.57-106.28,25.05h0Z"/>
      <path class="cls-6" d="m297.42,702.87l-80.03,4.28s-13.6-40.87-30.84-96.09c-5.04-16.12-10.39-33.47-15.81-51.39-24.87-82.28-51.09-176.42-54.61-218.29l104.8-4.28,76.49,365.77h0Z"/>
      <path class="cls-3" d="m217.39,707.69c-.23,0-.44-.15-.51-.37-.14-.41-13.8-41.51-30.84-96.1-5.26-16.84-10.58-34.13-15.81-51.39-22.92-75.84-51-175.3-54.63-218.4-.03-.3.2-.57.51-.58l104.8-4.28c.26-.06.49.17.55.42l76.49,365.77c.07.32-.16.62-.5.64l-80.03,4.28h-.03,0Zm-100.68-365.8c3.82,43.31,31.74,142.16,54.54,217.63,5.22,17.26,10.54,34.55,15.81,51.38,16.16,51.76,29.28,91.38,30.71,95.7l79-4.22-76.27-364.72-103.79,4.24h0Z"/>
      <path class="cls-3" d="m198.79,544.63s-4.95,36.33-12.24,66.43c-5.04-16.12-10.38-33.47-15.81-51.39l28.05-15.04Z"/>
      <path class="cls-3" d="m253.56,655.93s-.05,0-.08,0c-.29-.04-.49-.31-.45-.61,4.56-31.67.51-63.97-11.73-93.43-5.65-13.61-13.09-26.66-20.29-39.28-3.14-5.5-6.38-11.18-9.43-16.85-23.98-44.46-39.39-92.41-45.78-142.52-.04-.29.17-.56.46-.6.29-.03.56.17.6.46,6.38,49.98,21.74,97.81,45.66,142.15,3.05,5.65,6.29,11.33,9.42,16.82,7.21,12.65,14.67,25.72,20.34,39.4,12.31,29.63,16.39,62.13,11.8,93.99-.04.27-.27.46-.53.46h0Z"/>
      <path class="cls-6" d="m19.61,668.05c121.64-195.24,56.96-110.3,76.74-311.21,32.91,1.8,73.91-1.95,106.82,0,13.53,141.99,33.49,170.6-109.72,350.32l-73.84-39.11h0Z"/>
      <path class="cls-3" d="m93.2,707.63l-73.84-39.11c-.27-.14-.37-.49-.2-.76,79.94-128.32,79.31-135.53,75.17-182.41-2.1-23.82-5.28-59.81,1.49-128.57.03-.29.3-.51.56-.48,32.79,1.79,74.01-1.94,106.83,0,.26.02.48.22.5.48,1.27,13.36,2.58,25.52,3.85,37.28,6.05,56.23,10.05,93.37-3.66,137.46-13.72,44.13-45.6,95.11-110.03,175.96-.17.21-.45.26-.67.14h0Zm-72.83-39.79l72.94,38.64c129.31-162.34,125.24-200.18,113.18-312.29-1.25-11.63-2.54-23.66-3.8-36.84-32.52-1.87-73.28,1.78-105.85.05-6.7,68.32-3.53,104.14-1.44,127.86,4.16,47.13,4.8,54.44-75.02,182.58Z"/>
      <path class="cls-7" d="m254.33,279.18c-5.02,51.77-24.57,103.16-24.57,103.16-7.35-4.03-15.61-7.04-24.44-9.26-57.61-14.46-130.97,2.54-130.97,2.54,34.08-217.54,133.81-200.09,138.94-198.44,38.95,12.57,45.39,57.42,41.04,102Z"/>
      <path class="cls-6" d="m349.03,263.34s2.05-13.5,5.95-12.98c3.9.52.9,12.88.9,12.88"/>
      <path class="cls-3" d="m349.03,263.88c-.33,0-.58-.29-.53-.62.22-1.44,2.28-14.01,6.55-13.43.65.09,1.19.43,1.59,1.02,2.04,2.99-.15,12.14-.24,12.52-.07.29-.36.46-.65.39-.29-.07-.46-.36-.39-.65.69-2.85,2.33-12.24-.6-12.24-2.4,0-4.45,7.62-5.2,12.54-.04.26-.27.45-.53.45h0Z"/>
      <path class="cls-6" d="m350.16,263.48s7-6.08,9.42-8.13c4.74-4,15.97-13.54,18.13-11.2,2.68,2.9-12.47,16.05-12.47,16.05,0,0,5.47-1.74,4.44,3.47,2.24-2.18,5.34,2.09,2.34,4.73,0,0,4.83.78.17,5.74-3.78,4.02-7.66,5.99-11.08,7.1-2.76.9-6.29,1.16-9.02,7.33l-1.93-25.09h0Z"/>
      <path class="cls-3" d="m351.56,288.61l-1.93-25.09c-.01-.17.06-.34.18-.45,3.99-3.5,9.46-8.16,9.62-8.3,9.72-8.21,16.61-13.21,18.67-10.99.33.36.49.83.45,1.4-.2,3.55-8.21,11.14-11.6,14.2,2.07-.08,3.45,1.02,3.38,3.25,2.44-.79,4.7,2.82,2.65,5.5.6.26,1.34.74,1.63,1.6.43,1.26-.26,2.86-2.05,4.77-3.25,3.45-6.95,5.82-11.3,7.24-3.54,1.15-6.23,1.47-8.7,7.04-.23.52-.98.37-1.02-.17h0Zm-.84-24.91l1.76,22.9c2.54-4.46,5.34-4.86,8.47-5.88,4.18-1.36,7.73-3.64,10.85-6.96,1.86-1.98,2.02-3.1,1.82-3.69-.31-.91-1.67-1.15-1.68-1.15-.45-.07-.61-.63-.27-.93,1.83-1.61.99-3.95-.31-4.34-.45-.14-.89,0-1.3.4-.38.36-1,.03-.9-.49.25-1.27.11-2.15-.42-2.63-.87-.77-2.69-.42-3.33-.23-.24.08-.5-.03-.63-.25-.12-.22-.08-.5.11-.67,3.45-2.99,12.42-11.45,12.6-14.67.02-.27-.04-.47-.17-.62-1.93-2.11-15.63,9.88-17.39,11.25-2.16,1.82-8.04,6.93-9.21,7.95h0Z"/>
      <path class="cls-7" d="m168.27,246.71c39.38,74.99,115.52,100.84,190.41,52.09l-10.02-49.08c-60.1,21.88-107.98,20.31-129.41-43.47"/>
      <path class="cls-3" d="m249.49,319.49c-.05,0-.1,0-.15-.02-5.68-1.7-11.3-3.87-16.71-6.47-26.35-12.61-48.77-35.45-64.83-66.04-.14-.26-.04-.59.23-.72.26-.14.58-.04.72.23,15.95,30.39,38.2,53.06,64.35,65.58,5.36,2.57,10.93,4.73,16.55,6.41.28.08.45.38.36.67-.07.23-.28.38-.51.38h0Z"/>
      <path class="cls-6" d="m365.25,260.2s-1.34.97-3.42,3.04l3.42-3.04Z"/>
      <path class="cls-3" d="m361.45,263.63c-.21-.21-.21-.55,0-.76,2.09-2.08,3.43-3.06,3.49-3.1.24-.18.57-.12.75.12.17.24.12.57-.12.75-.01.01-1.33.97-3.36,2.99-.21.21-.55.21-.76,0h0Z"/>
      <path class="cls-6" d="m370.03,263.52s-1.34.96-3.42,3.04l3.42-3.04Z"/>
      <path class="cls-3" d="m366.23,266.94c-.21-.21-.21-.55,0-.76,2.09-2.09,3.43-3.06,3.49-3.1.24-.17.57-.12.75.12.17.24.12.57-.12.75-.01.01-1.34.97-3.36,2.99-.21.21-.55.21-.76,0h0Z"/>
      <path class="cls-6" d="m372.32,268.19s-1.34.96-3.42,3.04l3.42-3.04Z"/>
      <path class="cls-3" d="m368.52,271.61c-.21-.21-.21-.55,0-.76,2.09-2.09,3.43-3.06,3.49-3.1.24-.18.57-.12.75.12.17.24.12.57-.12.75-.01.01-1.34.97-3.36,2.99-.21.21-.55.21-.76,0Z"/>
      <path class="cls-3" d="m281.05,323.66c-16.91-.1-33.16-3.93-48.19-11.14.15-.41.3-.82.46-1.23,5.06-12.75,19.5-18.97,32.25-13.91,10.78,4.28,16.91,15.28,15.48,26.27h0Z"/>
      <path class="cls-3" d="m340.27,309.22l-13.18-38.69c-.09-.28.06-.58.34-.68.28-.09.58.06.68.33l13.18,38.69c.1.28-.05.58-.33.68-.3.1-.59-.07-.68-.33Z"/>
      <path class="cls-3" d="m338.32,273.36c-2.54-1.01-3.79-3.9-2.78-6.44,1.01-2.54,3.89-3.81,6.44-2.79,2.57,1.02,3.79,3.91,2.77,6.45-1.01,2.55-3.91,3.78-6.44,2.78h0Zm-1.78-6.04c-.79,1.99.19,4.26,2.18,5.05,1.98.78,4.26-.18,5.05-2.18.8-2-.17-4.26-2.17-5.06-1.98-.79-4.25.18-5.05,2.19h0Z"/>
      <path class="cls-6" d="m204.35,176.47l-1.16-17.24c-1.17-1.95-2.01-4.17-2.46-6.63-2.13-11.62,5.24-23.96,16.4-27.56,11.21-3.63,22.01,2.86,24.14,14.48.16.79.24,1.58.32,2.36,1.5,3.16,5.91,7.43,4.34,9.52-.82,1.09-4.58,1.62-6.82,1.55-2.34,7.41-3.45,14.78-14.9,14.33l.59,28.99"/>
      <path class="cls-3" d="m224.81,196.79c-.29,0-.53-.23-.54-.52l-.59-28.99c0-.34.31-.59.56-.55,10.13.38,11.5-4.93,14.37-13.96.07-.23.29-.38.53-.37,2.37.09,5.77-.53,6.38-1.34.83-1.1-.83-3.48-2.28-5.58-.21-.3-2.11-3.01-2.17-3.56-.08-.78-.16-1.56-.31-2.31-1.01-5.5-4.01-9.98-8.45-12.63-4.42-2.64-9.74-3.15-15-1.45-10.92,3.53-18.12,15.62-16.04,26.96.43,2.35,1.23,4.52,2.39,6.46.04.07.07.16.08.24l1.16,17.24c.02.29-.2.55-.5.57-.29,0-.55-.21-.57-.5l-1.15-17.11c-1.19-2.02-2.02-4.27-2.46-6.7-2.17-11.84,5.35-24.48,16.76-28.17,5.56-1.8,11.19-1.25,15.88,1.54,4.71,2.81,7.89,7.55,8.96,13.35.16.77.24,1.55.31,2.31,1.58,3.23,6.1,7.51,4.25,9.98-1.01,1.35-4.86,1.77-6.86,1.77-2.73,8.74-4.28,14.56-14.74,14.35l.58,28.42c0,.3-.23.54-.52.55h-.02Z"/>
      <path class="cls-3" d="m239.15,133.41s-6.65,6.38-21.15,1.35c-15.97-5.54,9.11,5.98-6.99,14.99,0,0-6.24,5.52-7.58,11.46,0,0-24.3-32.38-1.04-37.93,0,0-11.2-6.61,12.48-11.2,23.69-4.59,38.95,11.21,24.28,21.34h0Z"/>
      <path class="cls-6" d="m214.27,148.57c-.39-3.36-3.47-5.79-6.84-5.38-3.38.39-5.81,3.47-5.4,6.83.39,3.38,3.47,5.81,6.85,5.4"/>
      <path class="cls-3" d="m201.5,150.08c-.45-3.65,2.19-7,5.87-7.43,3.7-.45,7.01,2.23,7.43,5.85.04.29-.18.56-.47.59-.28.04-.56-.18-.59-.47-.35-3.03-3.12-5.29-6.24-4.92-3.12.36-5.31,3.18-4.94,6.24.35,3.08,3.15,5.31,6.26,4.94.3-.05.56.17.6.47.04.29-.17.56-.47.6-3.67.44-7.02-2.18-7.45-5.88Z"/>
      <path class="cls-3" d="m235.36,140.28c.28.85,1.2,1.33,2.04,1.05.85-.28,1.33-1.2,1.05-2.05-.28-.85-1.2-1.32-2.05-1.04-.84.27-1.32,1.18-1.04,2.04h0Z"/>
      <path class="cls-3" d="m230.95,137.1c-.24-.17-.3-.51-.13-.75.86-1.21,2.13-2.01,3.6-2.26,1.46-.25,2.93.09,4.14.95.24.17.3.51.13.75-.17.24-.51.3-.75.13-.98-.69-2.16-.96-3.34-.76-1.18.2-2.21.85-2.9,1.82-.17.24-.5.3-.75.13h0Z"/>
      <path class="cls-3" d="m224.29,167.23s-3.55-.08-7.54-2.83c2.07,3.25,4.6,5.65,7.52,7.36l.02-4.3v-.23h0Z"/>
      <path class="cls-3" d="m223.99,172.22c-3.08-1.82-5.67-4.35-7.7-7.54-.31-.49.27-1.06.75-.73,3.8,2.61,7.22,2.73,7.25,2.73.29,0,.52.25.52.54l-.03,4.53c0,.41-.44.67-.81.46Zm-5.35-6.09c1.47,1.85,3.18,3.41,5.1,4.67l.02-3.08c-.89-.1-2.81-.44-5.11-1.59Z"/>
      <path class="cls-6" d="m230.43,155.47s1.87,3.95,6.81,3.37l-6.81-3.37Z"/>
      <path class="cls-3" d="m236.27,159.43c-4.51,0-6.31-3.69-6.33-3.74-.13-.27-.01-.58.25-.71.27-.13.59-.01.71.25.07.15,1.8,3.59,6.27,3.07.31-.05.56.18.6.47.04.29-.17.56-.47.6-.36.04-.7.06-1.03.06h0Z"/>
      <path class="cls-3" d="m96.58,673.53l-58.5-35.3.76-1.26,58.5,35.3-.76,1.26Z"/>
      <path class="cls-3" d="m275.01,674.84l-65.91,2.58.06,1.47,65.91-2.58-.06-1.47Z"/>
      <path class="cls-3" d="m74.87,655.91l-1.05-1.03c58.11-59.07,76.01-128.01,80.8-175.43,5.18-51.39-3.48-89.28-3.57-89.65l1.43-.34c.09.38,8.81,38.5,3.6,90.13-4.81,47.66-22.8,116.94-81.21,176.32h0Z"/>
      <path class="cls-3" d="m129.27,65.04c-4.38-4.74-4.08-12.15.66-16.52,4.74-4.37,12.16-4.08,16.53.66.19.21.18.53-.03.72-.21.19-.53.18-.73-.03-4.08-4.42-10.83-4.52-15.08-.6-4.32,3.99-4.59,10.75-.6,15.08.19.21.18.53-.03.72-.21.2-.54.17-.72-.03h0Z"/>
      <path class="cls-3" d="m601.88,313.24c-.28-.01-.5-.25-.49-.53.01-.28.27-.51.53-.49,5.93.23,10.85-4.37,11.09-10.23.23-5.89-4.34-10.85-10.24-11.08-.28-.01-.5-.25-.49-.53.01-.28.29-.47.53-.49,6.46.26,11.48,5.69,11.22,12.15-.26,6.51-5.78,11.51-12.16,11.22h0Z"/>
      <path class="cls-3" d="m532.45,66.83v23.65c0,1.81,1.47,3.28,3.28,3.28s3.28-1.47,3.28-3.28v-23.65c0-1.81-1.47-3.28-3.28-3.28s-3.28,1.47-3.28,3.28Z"/>
      <path class="cls-3" d="m539.01,50.63v-5.87c0-1.81-1.47-3.28-3.28-3.28s-3.28,1.47-3.28,3.28v5.87c0,1.81,1.47,3.28,3.28,3.28s3.28-1.47,3.28-3.28Z"/>
      <path class="cls-3" d="m492.95,704.09c-7.44-2.6-14.34-10.6-12.51-18.98,1.71-7.81,9.49-12.16,17.65-15.69,7.39-3.2,15.42-7.25,17.23-14.84,2.34-9.8-6.17-17.4-13.59-23.38l-.36-.29c-11.92-9.61-23.67-19.77-34.93-30.19-6.74-6.24-13.18-12.47-17.96-20.15-17.52-28.13,3.19-52.73,28.29-53.14,15.67-.3,30.53,8.36,41.1,20.42,10.13,11.56,16.76,26.32,18.69,41.56,1.55,12.26.3,25.5,5.88,36.43,3.9,7.63,10.78,13.43,14.66,21.21,6.28,12.6,3.5,27.39,2.41,40.65-.02.28-.25.5-.55.47-.28-.02-.49-.27-.47-.55,1.06-12.99,3.86-27.75-2.31-40.11-3.8-7.61-10.72-13.5-14.66-21.2-5.72-11.18-4.43-24.5-5.99-36.76-1.9-15.04-8.46-29.61-18.45-41.01-10.37-11.84-24.76-20.28-40.3-20.07-23.65.39-44.85,23.58-27.43,51.57,4.71,7.57,11.1,13.75,17.79,19.94,11.23,10.4,22.97,20.54,34.87,30.14l.36.29c7.72,6.22,16.43,13.96,13.94,24.42-1.92,8.05-10.21,12.24-17.82,15.54-7.91,3.42-15.45,7.61-17.06,14.97-1.71,7.83,4.82,15.33,11.85,17.79,7.62,2.66,16.14,1.19,23.48-.61,9.23-2.26,18.34-5.3,27.08-9.06.26-.11.56,0,.67.27.11.26,0,.56-.27.67-8.79,3.78-17.96,6.85-27.24,9.11-7.87,1.92-16.37,3.27-24.06.58h0Z"/>
      <path class="cls-3" d="m547.35,746.54c-.28-.03-.49-.28-.46-.57,5.22-47.82-20.43-117.32-36.19-154.49-.11-.26.01-.56.27-.67.26-.11.56.01.67.27,15.8,37.26,41.51,106.95,36.26,155-.03.3-.32.49-.57.46h0Z"/>
      <path class="cls-1" d="m570.89,728.66c4.42.95,8.16,4.42,12.68,4.26,4.52-.17,9.21-3.36,9.59-7.87.38-4.5-3.36-8.18-6.79-11.12-3.44-2.94-7.2-6.56-6.9-11.07.18-2.77,1.96-5.25,4.17-6.93,2.21-1.68,4.84-2.71,7.43-3.74,8.04-3.21,15.96-6.69,23.76-10.44,4.55-2.19,9.12-4.5,12.93-7.82,3.81-3.31,6.86-7.76,7.54-12.77,1.18-8.72-5.48-17.27-13.84-19.99-8.37-2.73-17.74-.47-25.23,4.15-7.33,4.52-13.27,11.27-16.82,19.12-2.88,6.38-4.37,13.67-9.25,18.69-3.38,3.47-8.05,5.47-11.39,8.97-4.98,5.22-8.9,14.81-7.96,21.32.33,2.26-1.14,10.68,20.11,15.23h0Z"/>
      <path class="cls-3" d="m547.26,747.23c-.28-.05-.46-.32-.41-.6,5.15-26.76,30.54-60,45.22-77.43.19-.22.51-.24.72-.06.22.18.24.51.06.72-14.61,17.35-39.89,50.43-44.99,76.96-.05.26-.3.46-.6.41h0Z"/>
      <path class="cls-3" d="m337.46,463.88c-4.38-4.74-4.1-12.14.66-16.52,4.74-4.37,12.16-4.08,16.53.66.19.21.18.53-.03.72-.21.19-.53.18-.73-.03-4-4.33-10.74-4.61-15.08-.6-4.33,4-4.6,10.74-.6,15.08.19.21.18.53-.03.73-.21.2-.54.17-.73-.03h0Z"/>
      <path class="cls-4" d="m637.51,413.23l-6.3,8.19c-3.52,4.58-2.67,11.15,1.91,14.67l8.19,6.3c4.58,3.52,11.15,2.67,14.67-1.91l6.3-8.19c3.53-4.58,2.67-11.15-1.91-14.68l-8.19-6.3c-4.58-3.52-11.15-2.67-14.67,1.91Z"/>
      <path class="cls-9" d="m641.57,394.31l-31.26.16.16,31.26,31.26-.16-.16-31.26Z"/>
      <path class="cls-6" d="m440.94,75.74c0,20.31-16.47,36.77-36.77,36.77s-36.77-16.47-36.77-36.77,16.46-36.78,36.77-36.78,36.77,16.47,36.77,36.78Z"/>
      <path class="cls-3" d="m404.17,113.05c-20.57,0-37.31-16.74-37.31-37.31s16.74-37.32,37.31-37.32,37.31,16.74,37.31,37.32-16.74,37.31-37.31,37.31Zm0-73.55c-19.98,0-36.24,16.26-36.24,36.25s16.26,36.24,36.24,36.24,36.24-16.26,36.24-36.24-16.26-36.25-36.24-36.25Z"/>
      <path class="cls-6" d="m413.47,62.17c0,5.13-4.16,9.3-9.3,9.3s-9.3-4.16-9.3-9.3,4.16-9.3,9.3-9.3,9.3,4.16,9.3,9.3Z"/>
      <path class="cls-3" d="m404.17,72.01c-5.42,0-9.83-4.41-9.83-9.83s4.41-9.83,9.83-9.83,9.83,4.41,9.83,9.83-4.41,9.83-9.83,9.83Zm0-18.6c-4.83,0-8.76,3.93-8.76,8.76s3.93,8.76,8.76,8.76,8.76-3.93,8.76-8.76-3.93-8.76-8.76-8.76Z"/>
      <path class="cls-6" d="m384.69,95.72c0-10.76,8.72-19.48,19.48-19.48s19.48,8.72,19.48,19.48"/>
      <path class="cls-3" d="m423.65,96.26c-.3,0-.54-.24-.54-.54,0-10.45-8.5-18.95-18.94-18.95s-18.94,8.5-18.94,18.95c0,.3-.24.54-.54.54s-.53-.24-.53-.54c0-11.04,8.98-20.02,20.01-20.02s20.02,8.98,20.02,20.02c0,.3-.24.54-.54.54Z"/>
      <path class="cls-6" d="m473.65,131.49h-134.18c-2.18,0-3.95,1.77-3.95,3.95v23.86c0,2.18,1.77,3.95,3.95,3.95h134.18c2.18,0,3.95-1.77,3.95-3.95v-23.86c0-2.18-1.77-3.95-3.95-3.95Z"/>
      <path class="cls-3" d="m473.64,163.78h-134.18c-2.47,0-4.48-2.01-4.48-4.48v-23.85c0-2.47,2.01-4.48,4.48-4.48h134.18c2.47,0,4.48,2.01,4.48,4.48v23.85c0,2.47-2.01,4.48-4.48,4.48Zm-134.18-31.75c-1.88,0-3.41,1.53-3.41,3.41v23.85c0,1.88,1.53,3.41,3.41,3.41h134.18c1.88,0,3.41-1.53,3.41-3.41v-23.85c0-1.88-1.53-3.41-3.41-3.41h-134.18Z"/>
      <path class="cls-6" d="m473.65,178.82h-134.18c-2.18,0-3.95,1.77-3.95,3.95v23.85c0,2.18,1.77,3.95,3.95,3.95h134.18c2.18,0,3.95-1.77,3.95-3.95v-23.85c0-2.18-1.77-3.95-3.95-3.95Z"/>
      <path class="cls-3" d="m473.64,211.1h-134.18c-2.47,0-4.48-2.01-4.48-4.48v-23.85c0-2.47,2.01-4.48,4.48-4.48h134.18c2.47,0,4.48,2.01,4.48,4.48v23.85c0,2.47-2.01,4.48-4.48,4.48Zm-134.18-31.75c-1.88,0-3.41,1.53-3.41,3.41v23.85c0,1.88,1.53,3.41,3.41,3.41h134.18c1.88,0,3.41-1.53,3.41-3.41v-23.85c0-1.88-1.53-3.41-3.41-3.41h-134.18Z"/>
      <path class="cls-6" d="m357.45,194.69c0,2.84-2.3,5.13-5.13,5.13s-5.14-2.29-5.14-5.13,2.3-5.13,5.14-5.13,5.13,2.29,5.13,5.13Z"/>
      <path class="cls-3" d="m352.32,200.36c-3.13,0-5.67-2.54-5.67-5.66s2.55-5.66,5.67-5.66,5.66,2.54,5.66,5.66-2.54,5.66-5.66,5.66Zm0-10.25c-2.54,0-4.6,2.06-4.6,4.59s2.06,4.59,4.6,4.59,4.59-2.06,4.59-4.59-2.06-4.59-4.59-4.59Z"/>
      <path class="cls-6" d="m375.44,194.69c0,2.84-2.3,5.13-5.13,5.13s-5.14-2.29-5.14-5.13,2.3-5.13,5.14-5.13,5.13,2.29,5.13,5.13Z"/>
      <path class="cls-3" d="m370.31,200.36c-3.13,0-5.68-2.54-5.68-5.66s2.55-5.66,5.68-5.66,5.66,2.54,5.66,5.66-2.54,5.66-5.66,5.66Zm0-10.25c-2.54,0-4.6,2.06-4.6,4.59s2.06,4.59,4.6,4.59,4.59-2.06,4.59-4.59-2.06-4.59-4.59-4.59Z"/>
      <path class="cls-6" d="m393.42,194.69c0,2.84-2.3,5.13-5.13,5.13s-5.14-2.29-5.14-5.13,2.3-5.13,5.14-5.13,5.13,2.29,5.13,5.13Z"/>
      <path class="cls-3" d="m388.3,200.36c-3.13,0-5.67-2.54-5.67-5.66s2.54-5.66,5.67-5.66,5.66,2.54,5.66,5.66-2.54,5.66-5.66,5.66Zm0-10.25c-2.54,0-4.6,2.06-4.6,4.59s2.06,4.59,4.6,4.59,4.59-2.06,4.59-4.59-2.06-4.59-4.59-4.59Z"/>
      <path class="cls-6" d="m411.41,194.69c0,2.84-2.3,5.13-5.13,5.13s-5.14-2.29-5.14-5.13,2.3-5.13,5.14-5.13,5.13,2.29,5.13,5.13Z"/>
      <path class="cls-3" d="m406.28,200.36c-3.13,0-5.67-2.54-5.67-5.66s2.54-5.66,5.67-5.66,5.66,2.54,5.66,5.66-2.54,5.66-5.66,5.66Zm0-10.25c-2.54,0-4.6,2.06-4.6,4.59s2.06,4.59,4.6,4.59,4.59-2.06,4.59-4.59-2.06-4.59-4.59-4.59Z"/>
      <path class="cls-2" d="m407.11,142.22h-60.66c-.76,0-1.38.62-1.38,1.38v7.53c0,.76.62,1.38,1.38,1.38h60.66c.76,0,1.38-.62,1.38-1.38v-7.53c0-.76-.62-1.38-1.38-1.38Z"/>
    </g>
  </g>
</svg>