<svg width="160" height="34" viewBox="0 0 160 34" fill="none" xmlns="http://www.w3.org/2000/svg">
<path d="M34 17C34 14.5312 31.0849 12.9581 27.6476 13.2082C26.9797 13.2556 26.2137 13.3664 25.4193 13.512C26.084 13.0499 26.7012 12.5878 27.2108 12.151C29.8188 9.90058 30.7652 6.72277 29.0212 4.97877C27.2772 3.23478 24.0994 4.18116 21.849 6.78924C21.4122 7.29566 20.9469 7.91603 20.488 8.58071C20.6336 7.78626 20.7412 7.02029 20.7918 6.35245C21.0419 2.91826 19.4656 0 17 0C14.5344 0 12.9581 2.9151 13.2082 6.35245C13.2556 7.02029 13.3664 7.78626 13.512 8.58071C13.0499 7.91603 12.5878 7.29883 12.151 6.78924C9.90058 4.18432 6.72277 3.23478 4.97877 4.97877C3.23478 6.72277 4.18116 9.90058 6.78924 12.151C7.29566 12.5878 7.91603 13.0531 8.58071 13.512C7.78626 13.3664 7.02029 13.2588 6.35245 13.2082C2.91826 12.9581 0 14.5344 0 17C0 19.4656 2.9151 21.0419 6.35245 20.7918C7.02029 20.7444 7.78626 20.6336 8.58071 20.488C7.91603 20.9501 7.29883 21.4122 6.78924 21.849C4.18432 24.0994 3.23478 27.2772 4.97877 29.0212C6.72277 30.7652 9.90058 29.8188 12.151 27.2108C12.5878 26.7043 13.0531 26.084 13.512 25.4193C13.3664 26.2137 13.2588 26.9797 13.2082 27.6476C12.9581 31.0817 14.5344 34 17 34C19.4656 34 21.0419 31.0849 20.7918 27.6476C20.7444 26.9797 20.6336 26.2137 20.488 25.4193C20.9501 26.084 21.4122 26.7012 21.849 27.2108C24.0994 29.8157 27.2772 30.7652 29.0212 29.0212C30.7652 27.2772 29.8188 24.0994 27.2108 21.849C26.7043 21.4122 26.084 20.9469 25.4193 20.488C26.2137 20.6336 26.9797 20.7412 27.6476 20.7918C31.0817 21.0419 34 19.4656 34 17Z" fill="#0061DE"/>
<path d="M48.8125 9.78125V24H46.1367V9.78125H48.8125ZM53.2266 9.78125V11.9004H41.7715V9.78125H53.2266Z" fill="#0A2540"/>
<path d="M56.7129 15.5918V24H54.1348V13.4336H56.5762L56.7129 15.5918ZM59.9258 13.3652L59.8867 15.7676C59.7435 15.7415 59.5807 15.722 59.3984 15.709C59.2227 15.696 59.0566 15.6895 58.9004 15.6895C58.5033 15.6895 58.1549 15.7448 57.8555 15.8555C57.556 15.9596 57.3053 16.1126 57.1035 16.3145C56.9082 16.5163 56.7585 16.7637 56.6543 17.0566C56.5501 17.3431 56.4915 17.6686 56.4785 18.0332L55.9219 17.9648C55.9219 17.2943 55.9902 16.6725 56.127 16.0996C56.2637 15.5267 56.4622 15.0254 56.7227 14.5957C56.9831 14.166 57.3086 13.834 57.6992 13.5996C58.0964 13.3587 58.5521 13.2383 59.0664 13.2383C59.2096 13.2383 59.3626 13.2513 59.5254 13.2773C59.6947 13.2969 59.8281 13.3262 59.9258 13.3652Z" fill="#0A2540"/>
<path d="M67.6309 21.4902V13.4336H70.2285V24H67.7871L67.6309 21.4902ZM67.9629 19.3027L68.7637 19.2832C68.7637 19.9928 68.6855 20.6471 68.5293 21.2461C68.373 21.8451 68.1289 22.3659 67.7969 22.8086C67.4714 23.2448 67.0579 23.5866 66.5566 23.834C66.0553 24.0749 65.4629 24.1953 64.7793 24.1953C64.2585 24.1953 63.7832 24.1237 63.3535 23.9805C62.9238 23.8307 62.5527 23.5996 62.2402 23.2871C61.9342 22.9681 61.6966 22.5612 61.5273 22.0664C61.3581 21.5651 61.2734 20.9629 61.2734 20.2598V13.4336H63.8516V20.2793C63.8516 20.6309 63.8906 20.9238 63.9688 21.1582C64.0534 21.3926 64.1673 21.5846 64.3105 21.7344C64.4603 21.8776 64.6328 21.9818 64.8281 22.0469C65.0299 22.1055 65.2448 22.1348 65.4727 22.1348C66.0977 22.1348 66.5892 22.0111 66.9473 21.7637C67.3118 21.5098 67.5723 21.1712 67.7285 20.748C67.8848 20.3184 67.9629 19.8366 67.9629 19.3027Z" fill="#0A2540"/>
<path d="M77.2598 24.1953C76.459 24.1953 75.7396 24.0651 75.1016 23.8047C74.4635 23.5443 73.9199 23.1829 73.4707 22.7207C73.028 22.252 72.6862 21.7083 72.4453 21.0898C72.2109 20.4648 72.0938 19.7943 72.0938 19.0781V18.6875C72.0938 17.8737 72.2109 17.1348 72.4453 16.4707C72.6797 15.8001 73.0117 15.224 73.4414 14.7422C73.8711 14.2604 74.3854 13.8893 74.9844 13.6289C75.5833 13.3685 76.2441 13.2383 76.9668 13.2383C77.7155 13.2383 78.3763 13.3652 78.9492 13.6191C79.5221 13.8665 80.0007 14.2181 80.3848 14.6738C80.7689 15.1296 81.0586 15.6764 81.2539 16.3145C81.4492 16.946 81.5469 17.6458 81.5469 18.4141V19.498H73.2656V17.7207H79.0078V17.5254C78.9948 17.1152 78.9167 16.7409 78.7734 16.4023C78.6302 16.0573 78.4089 15.7839 78.1094 15.582C77.8099 15.3737 77.4225 15.2695 76.9473 15.2695C76.5632 15.2695 76.2279 15.3542 75.9414 15.5234C75.6615 15.6862 75.4271 15.9206 75.2383 16.2266C75.056 16.526 74.9193 16.8841 74.8281 17.3008C74.737 17.7174 74.6914 18.1797 74.6914 18.6875V19.0781C74.6914 19.5208 74.75 19.931 74.8672 20.3086C74.9909 20.6862 75.1699 21.015 75.4043 21.2949C75.6452 21.5684 75.9316 21.7832 76.2637 21.9395C76.6022 22.0892 76.9863 22.1641 77.416 22.1641C77.9564 22.1641 78.4447 22.0599 78.8809 21.8516C79.3236 21.6367 79.7077 21.321 80.0332 20.9043L81.332 22.252C81.1107 22.5775 80.8112 22.89 80.4336 23.1895C80.0625 23.4889 79.6133 23.7331 79.0859 23.9219C78.5586 24.1042 77.9499 24.1953 77.2598 24.1953Z" fill="#0A2540"/>
<path d="M86.2344 22.8281L89.0664 13.4336H91.8301L87.5918 25.6016C87.4941 25.862 87.3672 26.1452 87.2109 26.4512C87.0612 26.7572 86.8594 27.0469 86.6055 27.3203C86.3516 27.6003 86.0326 27.8281 85.6484 28.0039C85.2708 28.1797 84.8118 28.2676 84.2715 28.2676C84.0371 28.2676 83.8288 28.2513 83.6465 28.2188C83.4642 28.1862 83.2721 28.1439 83.0703 28.0918V26.1582C83.1354 26.1647 83.2103 26.168 83.2949 26.168C83.3861 26.1745 83.4642 26.1777 83.5293 26.1777C83.9069 26.1777 84.2194 26.1322 84.4668 26.041C84.7142 25.9564 84.9128 25.8164 85.0625 25.6211C85.2188 25.4323 85.349 25.1849 85.4531 24.8789L86.2344 22.8281ZM84.8379 13.4336L87.2305 21.2168L87.6504 23.9414L85.873 24.2637L82.0547 13.4336H84.8379Z" fill="#0A2540"/>
<path d="M92.4648 18.8242V18.6191C92.4648 17.8444 92.5755 17.1315 92.7969 16.4805C93.0182 15.8229 93.3405 15.2533 93.7637 14.7715C94.1868 14.2897 94.7044 13.9154 95.3164 13.6484C95.9284 13.375 96.625 13.2383 97.4062 13.2383C98.2005 13.2383 98.9036 13.375 99.5156 13.6484C100.134 13.9154 100.655 14.2897 101.078 14.7715C101.501 15.2533 101.824 15.8229 102.045 16.4805C102.266 17.1315 102.377 17.8444 102.377 18.6191V18.8242C102.377 19.5924 102.266 20.3053 102.045 20.9629C101.824 21.6139 101.501 22.1836 101.078 22.6719C100.655 23.1536 100.137 23.528 99.5254 23.7949C98.9134 24.0618 98.2135 24.1953 97.4258 24.1953C96.6445 24.1953 95.9447 24.0618 95.3262 23.7949C94.7077 23.528 94.1868 23.1536 93.7637 22.6719C93.3405 22.1836 93.0182 21.6139 92.7969 20.9629C92.5755 20.3053 92.4648 19.5924 92.4648 18.8242ZM95.043 18.6191V18.8242C95.043 19.2865 95.0885 19.7194 95.1797 20.123C95.2708 20.5267 95.4108 20.8815 95.5996 21.1875C95.7884 21.4935 96.0326 21.7344 96.332 21.9102C96.638 22.0794 97.0026 22.1641 97.4258 22.1641C97.8424 22.1641 98.2005 22.0794 98.5 21.9102C98.7995 21.7344 99.0436 21.4935 99.2324 21.1875C99.4277 20.8815 99.571 20.5267 99.6621 20.123C99.7533 19.7194 99.7988 19.2865 99.7988 18.8242V18.6191C99.7988 18.1634 99.7533 17.737 99.6621 17.3398C99.571 16.9362 99.4277 16.5814 99.2324 16.2754C99.0436 15.9629 98.7962 15.7188 98.4902 15.543C98.1908 15.3607 97.8294 15.2695 97.4062 15.2695C96.9896 15.2695 96.6315 15.3607 96.332 15.543C96.0326 15.7188 95.7884 15.9629 95.5996 16.2754C95.4108 16.5814 95.2708 16.9362 95.1797 17.3398C95.0885 17.737 95.043 18.1634 95.043 18.6191Z" fill="#0A2540"/>
<path d="M110.541 21.4902V13.4336H113.139V24H110.697L110.541 21.4902ZM110.873 19.3027L111.674 19.2832C111.674 19.9928 111.596 20.6471 111.439 21.2461C111.283 21.8451 111.039 22.3659 110.707 22.8086C110.382 23.2448 109.968 23.5866 109.467 23.834C108.965 24.0749 108.373 24.1953 107.689 24.1953C107.169 24.1953 106.693 24.1237 106.264 23.9805C105.834 23.8307 105.463 23.5996 105.15 23.2871C104.844 22.9681 104.607 22.5612 104.438 22.0664C104.268 21.5651 104.184 20.9629 104.184 20.2598V13.4336H106.762V20.2793C106.762 20.6309 106.801 20.9238 106.879 21.1582C106.964 21.3926 107.077 21.5846 107.221 21.7344C107.37 21.8776 107.543 21.9818 107.738 22.0469C107.94 22.1055 108.155 22.1348 108.383 22.1348C109.008 22.1348 109.499 22.0111 109.857 21.7637C110.222 21.5098 110.482 21.1712 110.639 20.748C110.795 20.3184 110.873 19.8366 110.873 19.3027Z" fill="#0A2540"/>
<path d="M115.531 22.7402C115.531 22.3496 115.665 22.0208 115.932 21.7539C116.199 21.487 116.56 21.3535 117.016 21.3535C117.471 21.3535 117.833 21.487 118.1 21.7539C118.367 22.0208 118.5 22.3496 118.5 22.7402C118.5 23.1243 118.367 23.4499 118.1 23.7168C117.833 23.9772 117.471 24.1074 117.016 24.1074C116.56 24.1074 116.199 23.9772 115.932 23.7168C115.665 23.4499 115.531 23.1243 115.531 22.7402Z" fill="#0A2540"/>
<path d="M129.623 19.3223H132.309C132.237 20.2728 131.973 21.1159 131.518 21.8516C131.062 22.5807 130.427 23.1536 129.613 23.5703C128.799 23.987 127.813 24.1953 126.654 24.1953C125.762 24.1953 124.958 24.0391 124.242 23.7266C123.533 23.4076 122.924 22.9551 122.416 22.3691C121.915 21.7767 121.531 21.0671 121.264 20.2402C120.997 19.4069 120.863 18.4727 120.863 17.4375V16.3535C120.863 15.3184 121 14.3841 121.273 13.5508C121.547 12.7174 121.938 12.0078 122.445 11.4219C122.96 10.8294 123.575 10.3737 124.291 10.0547C125.014 9.73568 125.821 9.57617 126.713 9.57617C127.872 9.57617 128.852 9.79102 129.652 10.2207C130.453 10.6439 131.075 11.2266 131.518 11.9688C131.96 12.7109 132.227 13.5638 132.318 14.5273H129.633C129.581 13.9284 129.451 13.4206 129.242 13.0039C129.04 12.5872 128.734 12.2715 128.324 12.0566C127.921 11.8353 127.383 11.7246 126.713 11.7246C126.192 11.7246 125.733 11.8223 125.336 12.0176C124.945 12.2129 124.62 12.5059 124.359 12.8965C124.099 13.2806 123.904 13.7624 123.773 14.3418C123.643 14.9147 123.578 15.5788 123.578 16.334V17.4375C123.578 18.1602 123.637 18.8079 123.754 19.3809C123.871 19.9538 124.053 20.4388 124.301 20.8359C124.548 21.2331 124.867 21.5358 125.258 21.7441C125.648 21.9525 126.114 22.0566 126.654 22.0566C127.312 22.0566 127.846 21.9525 128.256 21.7441C128.673 21.5358 128.988 21.2298 129.203 20.8262C129.424 20.4225 129.564 19.9212 129.623 19.3223Z" fill="#0A2540"/>
<path d="M136.928 9V24H134.34V9H136.928Z" fill="#0A2540"/>
<path d="M145.678 21.4902V13.4336H148.275V24H145.834L145.678 21.4902ZM146.01 19.3027L146.811 19.2832C146.811 19.9928 146.732 20.6471 146.576 21.2461C146.42 21.8451 146.176 22.3659 145.844 22.8086C145.518 23.2448 145.105 23.5866 144.604 23.834C144.102 24.0749 143.51 24.1953 142.826 24.1953C142.305 24.1953 141.83 24.1237 141.4 23.9805C140.971 23.8307 140.6 23.5996 140.287 23.2871C139.981 22.9681 139.743 22.5612 139.574 22.0664C139.405 21.5651 139.32 20.9629 139.32 20.2598V13.4336H141.898V20.2793C141.898 20.6309 141.938 20.9238 142.016 21.1582C142.1 21.3926 142.214 21.5846 142.357 21.7344C142.507 21.8776 142.68 21.9818 142.875 22.0469C143.077 22.1055 143.292 22.1348 143.52 22.1348C144.145 22.1348 144.636 22.0111 144.994 21.7637C145.359 21.5098 145.619 21.1712 145.775 20.748C145.932 20.3184 146.01 19.8366 146.01 19.3027Z" fill="#0A2540"/>
<path d="M150.551 9H153.139V21.666L152.885 24H150.551V9ZM159.936 18.6094V18.8145C159.936 19.6022 159.848 20.3249 159.672 20.9824C159.503 21.64 159.245 22.2096 158.9 22.6914C158.555 23.1667 158.126 23.5378 157.611 23.8047C157.104 24.0651 156.508 24.1953 155.824 24.1953C155.173 24.1953 154.607 24.0684 154.125 23.8145C153.65 23.5605 153.249 23.2025 152.924 22.7402C152.598 22.2715 152.338 21.7214 152.143 21.0898C151.947 20.4518 151.801 19.7552 151.703 19V18.4434C151.801 17.6816 151.947 16.985 152.143 16.3535C152.338 15.722 152.598 15.1719 152.924 14.7031C153.249 14.2344 153.65 13.873 154.125 13.6191C154.6 13.3652 155.16 13.2383 155.805 13.2383C156.495 13.2383 157.097 13.3717 157.611 13.6387C158.132 13.8991 158.562 14.2702 158.9 14.752C159.245 15.2272 159.503 15.7936 159.672 16.4512C159.848 17.1022 159.936 17.8216 159.936 18.6094ZM157.348 18.8145V18.6094C157.348 18.1602 157.312 17.737 157.24 17.3398C157.169 16.9362 157.051 16.5814 156.889 16.2754C156.726 15.9694 156.505 15.7285 156.225 15.5527C155.945 15.377 155.593 15.2891 155.17 15.2891C154.766 15.2891 154.421 15.3574 154.135 15.4941C153.855 15.6309 153.62 15.8197 153.432 16.0605C153.249 16.3014 153.106 16.5846 153.002 16.9102C152.904 17.2357 152.839 17.5872 152.807 17.9648V19.4883C152.852 19.9896 152.96 20.4421 153.129 20.8457C153.298 21.2428 153.549 21.5586 153.881 21.793C154.219 22.0273 154.656 22.1445 155.189 22.1445C155.606 22.1445 155.954 22.0632 156.234 21.9004C156.514 21.7311 156.736 21.4967 156.898 21.1973C157.061 20.8913 157.175 20.5365 157.24 20.1328C157.312 19.7292 157.348 19.2897 157.348 18.8145Z" fill="#0A2540"/>
</svg>
