<svg width="30" height="30" viewBox="0 0 30 30" fill="none" xmlns="http://www.w3.org/2000/svg">
<path d="M15 20C14.8355 20.0009 14.6724 19.9694 14.5201 19.9072C14.3678 19.845 14.2293 19.7533 14.1125 19.6375L6.61249 12.1375C6.37711 11.9021 6.24487 11.5829 6.24487 11.25C6.24487 10.9171 6.37711 10.5979 6.61249 10.3625C6.84787 10.1271 7.16711 9.99487 7.49999 9.99487C7.83286 9.99487 8.15211 10.1271 8.38749 10.3625L15 16.9875L21.6125 10.375C21.8516 10.1702 22.1592 10.0632 22.4738 10.0753C22.7884 10.0875 23.0868 10.2179 23.3094 10.4405C23.5321 10.6632 23.6625 10.9616 23.6746 11.2762C23.6868 11.5908 23.5798 11.8984 23.375 12.1375L15.875 19.6375C15.6422 19.8684 15.3279 19.9986 15 20Z" fill="black"/>
</svg>
