<svg width="20" height="20" viewBox="0 0 20 20" fill="none" xmlns="http://www.w3.org/2000/svg">
<path d="M19.8507 9.3175C19.1191 7.7175 16.2499 2.5 9.99989 2.5C3.74989 2.5 0.880726 7.7175 0.149059 9.3175C0.0508413 9.53192 0 9.76499 0 10.0008C0 10.2367 0.0508413 10.4697 0.149059 10.6842C0.880726 12.2825 3.74989 17.5 9.99989 17.5C16.2499 17.5 19.1191 12.2825 19.8507 10.6825C19.9487 10.4683 19.9995 10.2355 19.9995 10C19.9995 9.76446 19.9487 9.53168 19.8507 9.3175ZM9.99989 15.8333C4.74406 15.8333 2.29156 11.3617 1.66656 10.0092C2.29156 8.63833 4.74406 4.16667 9.99989 4.16667C15.2432 4.16667 17.6966 8.61917 18.3332 10C17.6966 11.3808 15.2432 15.8333 9.99989 15.8333Z" fill="#626263"/>
<path d="M9.99968 5.8335C9.17559 5.8335 8.37001 6.07787 7.6848 6.53571C6.9996 6.99355 6.46554 7.64429 6.15018 8.40565C5.83481 9.16701 5.7523 10.0048 5.91307 10.813C6.07384 11.6213 6.47068 12.3637 7.0534 12.9464C7.63612 13.5292 8.37855 13.926 9.1868 14.0868C9.99505 14.2475 10.8328 14.165 11.5942 13.8497C12.3555 13.5343 13.0063 13.0002 13.4641 12.315C13.922 11.6298 14.1663 10.8243 14.1663 10.0002C14.165 8.8955 13.7256 7.83646 12.9445 7.05535C12.1634 6.27423 11.1043 5.83482 9.99968 5.8335ZM9.99968 12.5002C9.50522 12.5002 9.02187 12.3535 8.61075 12.0788C8.19963 11.8041 7.8792 11.4137 7.68998 10.9569C7.50076 10.5001 7.45125 9.99739 7.54771 9.51244C7.64418 9.02748 7.88228 8.58203 8.23191 8.2324C8.58154 7.88276 9.027 7.64466 9.51195 7.5482C9.9969 7.45174 10.4996 7.50124 10.9564 7.69046C11.4132 7.87968 11.8036 8.20011 12.0784 8.61124C12.3531 9.02236 12.4997 9.50571 12.4997 10.0002C12.4997 10.6632 12.2363 11.2991 11.7674 11.7679C11.2986 12.2368 10.6627 12.5002 9.99968 12.5002Z" fill="#626263"/>
</svg>
